<?xml version="1.0" encoding="utf-8"?>
<!-- Generator: Adobe Illustrator 18.0.0, SVG Export Plug-In . SVG Version: 6.00 Build 0)  -->
<!DOCTYPE svg PUBLIC "-//W3C//DTD SVG 1.1//EN" "http://www.w3.org/Graphics/SVG/1.1/DTD/svg11.dtd">
<svg version="1.1" xmlns="http://www.w3.org/2000/svg" xmlns:xlink="http://www.w3.org/1999/xlink" x="0px" y="0px"
	 viewBox="0 0 54 54" enable-background="new 0 0 54 54" xml:space="preserve">
<g id="_x31_170px_grid">
</g>
<g id="Layer_3">
</g>
<g id="Layer_2">
</g>
<g id="SVG">
</g>
<g id="Layer_4">
	<g>
		<circle opacity="0.75" fill="#AE69B0" cx="27" cy="27" r="25"/>
		<g>
			<g>
				<path fill="#FFFFFF" d="M19.919,16.067c0.082,0.078,0.099,0.158,0.13,0.23c0.257,0.598,0.553,1.175,0.907,1.722
					c0.511,0.791,1.122,1.493,1.867,2.072c0.948,0.737,2.018,1.201,3.192,1.436c0.736,0.147,1.479,0.204,2.229,0.189
					c0.351-0.007,0.694-0.073,1.036-0.141c0.915-0.18,1.785-0.486,2.595-0.951c1.22-0.701,2.156-1.685,2.871-2.888
					c0.27-0.455,0.5-0.929,0.7-1.419c0.03-0.074,0.064-0.147,0.098-0.225c0.067,0.018,0.068,0.072,0.078,0.111
					c0.104,0.402,0.173,0.809,0.214,1.222c0.052,0.528,0.044,1.056-0.015,1.581c-0.134,1.195-0.495,2.319-1.133,3.341
					c-1.251,2.004-3.03,3.284-5.352,3.743c-4.381,0.866-8.481-1.901-9.484-6.046c-0.204-0.844-0.262-1.701-0.197-2.565
					C19.686,17.051,19.779,16.466,19.919,16.067z"/>
			</g>
			<g>
				<path fill="#FFFFFF" d="M27.778,10.681c2.256,0,4.02,1.861,4.017,4.046c-0.003,2.105-1.646,4.044-4.042,4.05
					c-2.334,0.006-4.06-1.865-4.053-4.062C23.71,12.416,25.543,10.672,27.778,10.681z"/>
			</g>
			<g>
				<path fill="#FFFFFF" d="M8.025,15.899c0.037,0.089,0.075,0.178,0.112,0.267c0.316,0.772,0.725,1.489,1.275,2.12
					c0.83,0.952,1.867,1.576,3.075,1.924c0.604,0.174,1.22,0.278,1.848,0.289c1.227,0.022,2.359-0.303,3.406-0.938
					c0.334-0.203,0.649-0.432,0.949-0.682c0.062-0.052,0.124-0.103,0.202-0.167c0.025,0.05,0.052,0.087,0.063,0.128
					c0.209,0.793,0.415,1.587,0.623,2.38c0.053,0.202,0.029,0.379-0.122,0.54c-0.846,0.904-1.819,1.617-3,2.022
					c-0.549,0.188-1.113,0.292-1.691,0.337c-0.595,0.046-1.184,0.019-1.771-0.09c-0.902-0.167-1.722-0.527-2.455-1.076
					c-0.925-0.693-1.662-1.55-2.171-2.591c-0.504-1.032-0.691-2.125-0.588-3.267c0.027-0.299,0.076-0.596,0.118-0.893
					C7.914,16.1,7.94,15.999,8.025,15.899z"/>
			</g>
			<g>
				<path fill="#FFFFFF" d="M36.584,18.706c0.083,0.069,0.139,0.113,0.193,0.16c0.891,0.787,1.921,1.296,3.088,1.52
					c0.617,0.118,1.24,0.146,1.868,0.083c1.268-0.128,2.412-0.571,3.426-1.341c1.029-0.781,1.76-1.788,2.225-2.991
					c0.031-0.08,0.043-0.172,0.127-0.255c0.022,0.079,0.043,0.136,0.055,0.196c0.431,2.071,0.027,3.955-1.288,5.62
					c-0.917,1.162-2.125,1.893-3.552,2.264c-0.537,0.14-1.084,0.209-1.64,0.199c-0.738-0.014-1.452-0.156-2.139-0.426
					c-1.065-0.42-2.008-1.025-2.797-1.86c-0.05-0.053-0.097-0.109-0.146-0.163c-0.112-0.125-0.145-0.265-0.097-0.429
					c0.075-0.257,0.143-0.516,0.21-0.776c0.132-0.511,0.262-1.022,0.394-1.533C36.53,18.895,36.553,18.817,36.584,18.706z"/>
			</g>
			<g>
				<path fill="#FFFFFF" d="M11.084,14.741c0.002-1.475,1.033-2.787,2.512-3.15c1.41-0.346,2.843,0.237,3.586,1.45
					c0.954,1.557,0.517,3.707-1.234,4.638c-1.185,0.63-2.689,0.481-3.699-0.382c-0.584-0.498-0.942-1.13-1.085-1.881
					C11.122,15.194,11.11,14.966,11.084,14.741z"/>
			</g>
			<g>
				<path fill="#FFFFFF" d="M44.463,14.741c-0.007,1.819-1.361,3.328-3.318,3.318c-1.873-0.01-3.278-1.518-3.265-3.301
					c0.013-1.795,1.457-3.279,3.336-3.26C43.072,11.518,44.487,13.049,44.463,14.741z"/>
			</g>
			<g>
				<path fill="#FFFFFF" d="M24.809,38.351c-0.011,0.575-0.087,1.119-0.231,1.656c-0.228,0.853-0.788,1.34-1.642,1.496
					c-0.54,0.099-1.084,0.089-1.623-0.014c-0.838-0.16-1.365-0.67-1.62-1.474c-0.089-0.281-0.113-0.573-0.139-0.864
					c-0.019-0.202-0.022-0.406-0.046-0.607c-0.035-0.303,0.008-0.6,0.046-0.898c0.036-0.29,0.078-0.58,0.142-0.864
					c0.164-0.732,0.608-1.226,1.316-1.471c0.781-0.27,1.565-0.262,2.338,0.029c0.634,0.238,1.049,0.685,1.226,1.349
					C24.723,37.241,24.801,37.801,24.809,38.351z M20.496,38.412c0.01,0.424,0.03,0.845,0.078,1.265
					c0.058,0.501,0.32,0.846,0.8,1.002c0.5,0.163,1.009,0.162,1.508-0.004c0.411-0.137,0.688-0.422,0.813-0.84
					c0.044-0.147,0.075-0.299,0.092-0.452c0.045-0.394,0.086-0.789,0.053-1.187c-0.015-0.186,0.001-0.374-0.009-0.56
					c-0.016-0.309-0.065-0.613-0.196-0.898c-0.157-0.343-0.414-0.573-0.772-0.695c-0.234-0.08-0.476-0.103-0.719-0.104
					c-0.301-0.001-0.599,0.024-0.879,0.155c-0.41,0.191-0.649,0.506-0.684,0.959C20.544,37.505,20.523,37.959,20.496,38.412z"/>
			</g>
			<g>
				<path fill="#FFFFFF" d="M34.181,35.987c-0.065-0.163-0.061-0.309-0.054-0.454c0.005-0.099,0.062-0.168,0.156-0.197
					c0.077-0.024,0.157-0.043,0.237-0.051c0.703-0.066,1.407-0.126,2.114-0.106c0.252,0.007,0.503,0.025,0.747,0.094
					c0.493,0.141,0.819,0.452,0.949,0.95c0.045,0.171,0.079,0.351,0.08,0.527c0.01,1.283,0.01,2.565,0.015,3.848
					c0.001,0.17,0.018,0.339,0.026,0.509c0.002,0.041,0.007,0.081,0.003,0.122c-0.009,0.101-0.06,0.169-0.16,0.188
					c-0.127,0.024-0.256,0.045-0.385,0.051c-0.205,0.009-0.294-0.06-0.362-0.254c-0.013-0.038-0.02-0.077-0.034-0.133
					c-0.048,0.012-0.093,0.017-0.134,0.034c-0.082,0.035-0.162,0.076-0.241,0.116c-0.458,0.23-0.942,0.344-1.455,0.344
					c-0.268,0-0.534-0.011-0.801-0.048c-0.436-0.06-0.925-0.359-1.095-1.009c-0.012-0.047-0.023-0.095-0.029-0.143
					c-0.05-0.437-0.069-0.874,0.021-1.309c0.118-0.577,0.456-0.954,1.023-1.124c0.243-0.073,0.491-0.113,0.742-0.125
					c0.519-0.024,1.038-0.042,1.557-0.057c0.333-0.01,0.398-0.065,0.41-0.398c0.01-0.268-0.001-0.535-0.066-0.798
					c-0.08-0.324-0.287-0.516-0.605-0.601c-0.19-0.051-0.385-0.069-0.579-0.065c-0.422,0.009-0.843,0.025-1.265,0.042
					C34.73,35.952,34.464,35.971,34.181,35.987z M37.495,39.456h0.014c0-0.089,0.001-0.178,0-0.267
					c-0.002-0.146,0.002-0.292-0.013-0.437c-0.021-0.214-0.121-0.299-0.333-0.301c-0.016,0-0.033-0.001-0.049,0
					c-0.429,0.018-0.859,0.035-1.288,0.056c-0.154,0.008-0.308,0.022-0.46,0.045c-0.388,0.057-0.626,0.307-0.665,0.639
					c-0.005,0.04-0.015,0.08-0.021,0.12c-0.04,0.291-0.047,0.583-0.014,0.874c0.047,0.418,0.287,0.64,0.706,0.658
					c0.21,0.009,0.422,0.003,0.632-0.008c0.383-0.021,0.751-0.119,1.114-0.241c0.244-0.082,0.376-0.243,0.376-0.504
					C37.495,39.878,37.495,39.667,37.495,39.456z"/>
			</g>
			<g>
				<path fill="#FFFFFF" d="M43.43,29.571c-0.037-0.437,0.054-0.858,0.159-1.275c0.122-0.482,0.426-0.815,0.887-0.997
					c0.437-0.172,0.894-0.234,1.362-0.194c0.259,0.022,0.514,0.072,0.761,0.155c0.505,0.17,0.837,0.498,0.991,1.017
					c0.235,0.794,0.232,1.582-0.003,2.375c-0.14,0.471-0.439,0.789-0.89,0.963c-0.478,0.185-0.976,0.241-1.484,0.179
					c-0.192-0.024-0.386-0.063-0.57-0.123c-0.688-0.224-1.063-0.713-1.158-1.421C43.455,30.026,43.448,29.798,43.43,29.571z
					 M46.437,29.557c-0.011-0.363-0.027-0.631-0.09-0.893c-0.084-0.349-0.293-0.525-0.651-0.551
					c-0.04-0.003-0.081-0.003-0.122-0.003c-0.453,0.003-0.677,0.184-0.756,0.626c-0.086,0.484-0.077,0.97-0.006,1.455
					c0.008,0.056,0.024,0.111,0.041,0.165c0.079,0.249,0.249,0.396,0.506,0.431c0.12,0.017,0.243,0.019,0.364,0.011
					c0.358-0.024,0.57-0.209,0.63-0.564C46.398,29.98,46.418,29.721,46.437,29.557z"/>
			</g>
			<g>
				<path fill="#FFFFFF" d="M11.694,30.781c0.023,0.244,0.013,0.478,0.005,0.712c-0.003,0.074-0.049,0.118-0.112,0.145
					c-0.03,0.012-0.062,0.02-0.094,0.026c-0.497,0.085-0.995,0.155-1.5,0.153c-0.326-0.001-0.648-0.035-0.967-0.101
					c-0.079-0.016-0.159-0.036-0.236-0.06c-0.549-0.175-0.901-0.544-1.028-1.103c-0.156-0.69-0.174-1.385-0.003-2.076
					c0.041-0.164,0.102-0.326,0.176-0.478c0.152-0.31,0.392-0.542,0.713-0.669c0.611-0.243,1.24-0.321,1.884-0.144
					c0.285,0.078,0.549,0.202,0.775,0.396c0.235,0.201,0.384,0.459,0.479,0.75c0.083,0.257,0.122,0.522,0.139,0.79
					c0.011,0.162,0.012,0.325,0.01,0.487c-0.001,0.138-0.054,0.192-0.188,0.206c-0.048,0.005-0.097,0.003-0.146,0.003
					c-0.772-0.002-1.543-0.005-2.315-0.007c-0.057,0-0.114,0-0.17,0.009c-0.091,0.014-0.142,0.07-0.149,0.166
					c-0.013,0.191,0.021,0.373,0.119,0.539c0.105,0.176,0.272,0.255,0.466,0.269c0.21,0.016,0.422,0.023,0.633,0.019
					c0.487-0.01,0.974-0.029,1.46-0.044C11.646,30.767,11.662,30.771,11.694,30.781z M9.771,29.109
					C9.771,29.109,9.771,29.109,9.771,29.109c0.162,0.001,0.323,0.003,0.485,0c0.081-0.001,0.161-0.008,0.241-0.017
					c0.084-0.01,0.127-0.063,0.139-0.145c0.003-0.024,0.008-0.048,0.009-0.072c0.021-0.407-0.267-0.76-0.671-0.815
					c-0.103-0.014-0.21-0.018-0.314-0.012c-0.212,0.011-0.393,0.095-0.518,0.272c-0.141,0.2-0.189,0.427-0.164,0.668
					c0.007,0.061,0.05,0.101,0.113,0.11c0.04,0.006,0.08,0.009,0.12,0.01C9.4,29.109,9.585,29.109,9.771,29.109z"/>
			</g>
			<g>
				<path fill="#FFFFFF" d="M30.985,30.767c0.012,0.029,0.028,0.051,0.028,0.073c0.003,0.195,0.006,0.39,0.004,0.585
					c-0.002,0.153-0.042,0.209-0.191,0.236c-0.689,0.126-1.381,0.206-2.083,0.123c-0.219-0.026-0.435-0.056-0.645-0.123
					c-0.235-0.074-0.45-0.184-0.631-0.356c-0.219-0.21-0.344-0.47-0.409-0.761c-0.071-0.319-0.091-0.645-0.085-0.969
					c0.006-0.34,0.04-0.681,0.072-1.02c0.053-0.558,0.437-1.189,1.302-1.363c0.449-0.09,0.904-0.086,1.358-0.021
					c0.756,0.108,1.283,0.612,1.445,1.385c0.036,0.174,0.048,0.354,0.063,0.531c0.015,0.178,0.025,0.357,0.029,0.535
					c0.003,0.127-0.049,0.178-0.171,0.189c-0.056,0.005-0.114,0.003-0.171,0.003c-0.772-0.002-1.543-0.004-2.315-0.005
					c-0.065,0-0.13,0-0.194,0.009c-0.073,0.01-0.116,0.056-0.12,0.132c-0.01,0.198,0.022,0.389,0.113,0.567
					c0.054,0.105,0.141,0.181,0.252,0.218c0.092,0.031,0.188,0.054,0.284,0.062c0.178,0.015,0.357,0.025,0.535,0.021
					c0.479-0.013,0.957-0.035,1.436-0.054C30.921,30.761,30.953,30.765,30.985,30.767z M29.059,29.108v0.001
					c0.065,0,0.13,0.001,0.195,0c0.17-0.004,0.341-0.002,0.511-0.016c0.126-0.01,0.169-0.064,0.178-0.19
					c0.019-0.278-0.086-0.508-0.286-0.696c-0.04-0.038-0.093-0.069-0.145-0.087c-0.21-0.073-0.426-0.101-0.647-0.061
					c-0.175,0.031-0.322,0.114-0.424,0.262c-0.135,0.195-0.177,0.416-0.161,0.649c0.005,0.075,0.049,0.117,0.122,0.13
					c0.032,0.005,0.064,0.007,0.097,0.008C28.685,29.109,28.872,29.108,29.059,29.108z"/>
			</g>
			<g>
				<path fill="#FFFFFF" d="M33.34,31.661c-0.062,0.011-0.093,0.021-0.125,0.021c-0.333,0.001-0.666,0.001-0.999,0.001
					c-0.032,0-0.065-0.002-0.097-0.008c-0.052-0.01-0.089-0.043-0.097-0.096c-0.008-0.056-0.009-0.113-0.009-0.17
					c0-1.299-0.001-2.599,0-3.898c0-0.277,0.006-0.281,0.291-0.281c0.26-0.001,0.52-0.002,0.78,0.001
					c0.14,0.002,0.159,0.025,0.174,0.173c0.004,0.039,0.008,0.078,0.014,0.134c0.056-0.013,0.103-0.018,0.144-0.035
					c0.187-0.079,0.369-0.171,0.558-0.243c0.469-0.178,0.948-0.206,1.434-0.069c0.395,0.112,0.643,0.361,0.73,0.767
					c0.045,0.207,0.079,0.414,0.079,0.627c0.001,0.617,0.002,1.234,0.004,1.852c0.001,0.309,0.003,0.617,0.003,0.926
					c0,0.065-0.001,0.13-0.009,0.194c-0.01,0.073-0.055,0.113-0.13,0.123c-0.04,0.005-0.081,0.006-0.122,0.006
					c-0.268,0-0.536,0-0.804,0c-0.041,0-0.082-0.001-0.121-0.007c-0.072-0.011-0.117-0.054-0.125-0.128
					c-0.008-0.072-0.008-0.146-0.008-0.219c-0.001-0.755,0.002-1.511-0.002-2.266c-0.001-0.178-0.018-0.356-0.032-0.534
					c-0.004-0.048-0.013-0.097-0.029-0.143c-0.06-0.181-0.192-0.279-0.385-0.275c-0.097,0.002-0.194,0.016-0.289,0.037
					c-0.214,0.047-0.425,0.104-0.639,0.15c-0.114,0.025-0.164,0.101-0.179,0.203c-0.012,0.08-0.01,0.162-0.011,0.243
					c-0.001,0.877,0,1.754,0,2.631C33.34,31.465,33.34,31.553,33.34,31.661z"/>
			</g>
			<g>
				<path fill="#FFFFFF" d="M24.855,31.364c-0.196,0.084-0.374,0.16-0.552,0.236c-0.348,0.15-0.712,0.223-1.09,0.209
					c-0.105-0.004-0.211-0.014-0.314-0.034c-0.528-0.098-0.866-0.454-0.914-0.993c-0.031-0.347-0.039-0.697-0.043-1.046
					c-0.007-0.714-0.005-1.429-0.006-2.143c0-0.351,0.007-0.359,0.348-0.362c0.308-0.002,0.616,0,0.935,0
					c0.012,0.051,0.029,0.095,0.033,0.141c0.006,0.073,0.003,0.146,0.004,0.219c0,0.804-0.002,1.607,0.002,2.411
					c0.001,0.153,0.012,0.309,0.041,0.459c0.043,0.222,0.16,0.325,0.382,0.34c0.128,0.009,0.262,0.004,0.387-0.023
					c0.19-0.041,0.374-0.107,0.561-0.16c0.118-0.034,0.169-0.122,0.178-0.235c0.009-0.113,0.008-0.227,0.008-0.341
					c0-0.82-0.002-1.64-0.003-2.46c0-0.065-0.001-0.13,0.007-0.194c0.013-0.096,0.066-0.157,0.156-0.158
					c0.349-0.004,0.698-0.002,1.047,0.002c0.074,0.001,0.115,0.046,0.123,0.126c0.007,0.08,0.006,0.162,0.006,0.243
					c-0.003,1.12-0.006,2.24-0.009,3.361c0,0.13,0.003,0.26,0.004,0.39c0,0.049,0.001,0.098-0.005,0.146
					c-0.016,0.133-0.056,0.172-0.183,0.182c-0.04,0.003-0.081,0.002-0.122,0.002c-0.211,0-0.422,0-0.633,0.001
					c-0.024,0-0.049,0.002-0.073,0.002c-0.186-0.005-0.204-0.023-0.239-0.225C24.888,31.438,24.876,31.417,24.855,31.364z"/>
			</g>
			<g>
				<path fill="#FFFFFF" d="M13.926,27.251c0.022,0.097,0.045,0.197,0.072,0.314c0.128-0.063,0.236-0.118,0.345-0.171
					c0.294-0.142,0.6-0.244,0.927-0.279c0.321-0.034,0.631,0.007,0.934,0.115c0.379,0.135,0.598,0.407,0.662,0.801
					c0.026,0.16,0.041,0.323,0.043,0.484c0.007,0.739,0.007,1.478,0.01,2.216c0.001,0.219,0.002,0.438,0.003,0.657
					c0,0.049,0.002,0.098-0.004,0.146c-0.01,0.089-0.052,0.131-0.138,0.143c-0.04,0.006-0.081,0.006-0.121,0.006
					c-0.268,0-0.536,0-0.804,0c-0.04,0-0.082-0.001-0.121-0.007c-0.074-0.011-0.119-0.052-0.128-0.125
					c-0.01-0.072-0.01-0.146-0.01-0.218c0.001-0.82,0.004-1.64,0.001-2.46c0-0.145-0.015-0.293-0.048-0.433
					c-0.053-0.228-0.182-0.327-0.415-0.338c-0.297-0.014-0.579,0.063-0.859,0.149c-0.13,0.041-0.199,0.138-0.218,0.267
					c-0.013,0.088-0.017,0.178-0.017,0.267c0,0.812,0.001,1.624,0.002,2.436c0,0.097,0.003,0.195-0.004,0.292
					c-0.009,0.112-0.058,0.158-0.168,0.171c-0.024,0.003-0.048,0.004-0.073,0.004c-0.276-0.001-0.552-0.001-0.828-0.005
					c-0.221-0.003-0.25-0.03-0.25-0.258c-0.001-1.169,0.001-2.338,0.001-3.507c0-0.13,0.001-0.26,0.002-0.39
					c0.001-0.049-0.001-0.098,0.009-0.145c0.017-0.084,0.083-0.138,0.169-0.148C13.034,27.219,13.783,27.23,13.926,27.251z"/>
			</g>
			<g>
				<path fill="#FFFFFF" d="M18.34,35.937c-0.108,0.003-0.188,0.008-0.267,0.008c-0.382-0.002-0.763-0.008-1.145-0.008
					c-0.333,0-0.666,0.005-0.999,0.01C15.8,35.948,15.67,35.953,15.545,36c-0.171,0.065-0.285,0.181-0.341,0.354
					c-0.054,0.166-0.064,0.336-0.036,0.505c0.032,0.193,0.136,0.346,0.3,0.454c0.088,0.058,0.18,0.111,0.274,0.158
					c0.428,0.213,0.86,0.422,1.288,0.636c0.247,0.123,0.496,0.243,0.732,0.385c0.637,0.383,0.903,0.958,0.812,1.689
					c-0.058,0.471-0.299,0.837-0.713,1.076c-0.285,0.164-0.592,0.264-0.925,0.269c-0.577,0.008-1.153,0.006-1.728-0.041
					c-0.113-0.009-0.227-0.011-0.34-0.022c-0.097-0.009-0.194-0.02-0.289-0.039c-0.201-0.042-0.265-0.115-0.268-0.314
					c-0.002-0.097,0.011-0.194,0.022-0.291c0.004-0.039,0.02-0.076,0.029-0.11c0.099-0.034,0.187-0.008,0.275-0.002
					c0.38,0.029,0.76,0.063,1.141,0.086c0.39,0.023,0.779-0.003,1.165-0.064c0.048-0.007,0.095-0.019,0.143-0.029
					c0.318-0.063,0.49-0.266,0.551-0.575c0.012-0.063,0.013-0.129,0.018-0.194c0.025-0.341-0.099-0.604-0.409-0.763
					c-0.411-0.212-0.823-0.423-1.236-0.63c-0.21-0.106-0.426-0.201-0.636-0.305c-0.123-0.061-0.245-0.127-0.362-0.2
					c-0.642-0.396-0.878-0.967-0.765-1.704c0.077-0.504,0.364-0.839,0.844-1.007c0.466-0.163,0.948-0.212,1.439-0.207
					c0.481,0.004,0.953,0.079,1.425,0.167c0.124,0.023,0.207,0.083,0.247,0.204C18.245,35.624,18.306,35.757,18.34,35.937z"/>
			</g>
			<g>
				<path fill="#FFFFFF" d="M39.755,30.927c0.014,0.232,0.018,0.433-0.007,0.634c-0.01,0.079-0.055,0.135-0.135,0.153
					c-0.48,0.106-0.962,0.153-1.446,0.019c-0.383-0.106-0.611-0.356-0.682-0.744c-0.028-0.151-0.047-0.306-0.048-0.459
					c-0.007-0.674-0.005-1.348-0.007-2.022c0-0.032,0.003-0.065,0.002-0.097c-0.004-0.21-0.04-0.248-0.254-0.27
					c-0.113-0.012-0.226-0.02-0.339-0.034c-0.055-0.007-0.109-0.022-0.159-0.032c-0.036-0.182-0.042-0.527-0.014-0.822
					c0.05-0.007,0.103-0.021,0.157-0.022c0.146-0.004,0.292,0.001,0.438-0.006c0.116-0.005,0.162-0.051,0.165-0.167
					c0.006-0.235,0.002-0.471,0.005-0.706c0.001-0.079-0.017-0.162,0.024-0.235c0.01-0.005,0.017-0.012,0.024-0.012
					c0.356-0.003,0.713-0.011,1.069-0.005c0.146,0.003,0.193,0.063,0.199,0.221c0.008,0.187,0.005,0.374,0.007,0.56
					c0,0.057-0.005,0.114-0.001,0.17c0.008,0.121,0.061,0.176,0.186,0.179c0.17,0.005,0.341,0,0.512-0.001
					c0.305-0.001,0.307,0.002,0.316,0.313c0.003,0.122,0.014,0.244,0.008,0.365c-0.008,0.163-0.079,0.239-0.24,0.249
					c-0.129,0.008-0.259,0-0.389-0.003c-0.391-0.008-0.395-0.005-0.394,0.384c0.001,0.641,0.001,1.283,0.004,1.925
					c0,0.081,0.006,0.163,0.022,0.241c0.021,0.104,0.085,0.176,0.195,0.191c0.096,0.014,0.193,0.024,0.29,0.028
					C39.416,30.928,39.569,30.926,39.755,30.927z"/>
			</g>
			<g>
				<path fill="#FFFFFF" d="M30.01,35.979c-0.311-0.016-0.594-0.03-0.878-0.044c-0.373-0.018-0.747-0.047-1.118,0.021
					c-0.15,0.028-0.303,0.067-0.442,0.128c-0.387,0.173-0.615,0.482-0.657,0.9c-0.091,0.891-0.101,1.784-0.013,2.676
					c0.011,0.112,0.037,0.225,0.075,0.331c0.109,0.306,0.314,0.526,0.612,0.659c0.188,0.084,0.384,0.129,0.589,0.139
					c0.439,0.022,0.877-0.002,1.315-0.028c0.162-0.009,0.323-0.016,0.493-0.025c0.068,0.158,0.101,0.313,0.089,0.477
					c-0.006,0.089-0.053,0.155-0.133,0.189c-0.067,0.028-0.139,0.049-0.21,0.059c-0.58,0.076-1.164,0.124-1.749,0.096
					c-0.185-0.009-0.372-0.04-0.552-0.087c-0.789-0.206-1.25-0.728-1.391-1.522c-0.113-0.641-0.142-1.291-0.121-1.942
					c0.013-0.414,0.032-0.828,0.112-1.236c0.022-0.111,0.052-0.221,0.089-0.328c0.196-0.578,0.591-0.959,1.165-1.158
					c0.263-0.091,0.536-0.133,0.812-0.148c0.538-0.029,1.071,0.031,1.602,0.105c0.064,0.009,0.128,0.025,0.19,0.045
					c0.125,0.042,0.18,0.12,0.185,0.256C30.075,35.682,30.036,35.814,30.01,35.979z"/>
			</g>
			<g>
				<path fill="#FFFFFF" d="M21.152,30.837c0.029,0.147,0.036,0.556,0.017,0.678c-0.013,0.083-0.059,0.134-0.137,0.152
					c-0.127,0.028-0.254,0.053-0.382,0.074c-0.483,0.079-0.967,0.112-1.454,0.028c-0.112-0.019-0.224-0.042-0.332-0.074
					c-0.605-0.179-0.951-0.59-1.071-1.202c-0.056-0.288-0.065-0.581-0.071-0.873c-0.009-0.389,0.005-0.779,0.063-1.166
					c0.094-0.621,0.439-1.035,1.035-1.229c0.153-0.05,0.316-0.085,0.476-0.092c0.275-0.012,0.552-0.005,0.827,0.012
					c0.283,0.017,0.565,0.055,0.848,0.087c0.159,0.018,0.215,0.081,0.215,0.237c0,0.17-0.002,0.34-0.009,0.511
					c-0.005,0.132-0.048,0.173-0.181,0.172c-0.097,0-0.194-0.012-0.292-0.015c-0.26-0.01-0.519-0.024-0.779-0.024
					c-0.12,0-0.243,0.02-0.361,0.046c-0.232,0.053-0.382,0.2-0.458,0.427c-0.06,0.18-0.068,0.367-0.078,0.553
					c-0.018,0.325,0.006,0.649,0.037,0.973c0.003,0.032,0.009,0.064,0.016,0.096c0.082,0.389,0.293,0.578,0.69,0.59
					c0.381,0.012,0.763,0.006,1.145,0.01C20.996,30.808,21.079,30.788,21.152,30.837z"/>
			</g>
			<g>
				<path fill="#FFFFFF" d="M40.063,37.044c0-1.307,0-2.613,0-3.92c0-0.081-0.001-0.163,0.006-0.243
					c0.007-0.079,0.044-0.128,0.118-0.133c0.177-0.013,0.356-0.026,0.533-0.019c0.138,0.006,0.205,0.076,0.223,0.214
					c0.017,0.128,0.019,0.259,0.019,0.389c0.001,1.558,0.001,3.117,0.001,4.675c-0.001,0.982-0.002,1.964-0.007,2.946
					c-0.001,0.112-0.02,0.225-0.039,0.336c-0.014,0.08-0.068,0.13-0.153,0.129c-0.186-0.001-0.373-0.004-0.559-0.01
					c-0.065-0.002-0.108-0.048-0.118-0.106c-0.015-0.087-0.022-0.177-0.023-0.265c-0.002-0.779-0.001-1.558-0.001-2.337
					C40.063,38.148,40.063,37.596,40.063,37.044z"/>
			</g>
			<g>
				<path fill="#FFFFFF" d="M41.658,27.241c0.012,0.101,0.023,0.187,0.036,0.291c0.051-0.014,0.102-0.015,0.135-0.04
					c0.336-0.259,0.732-0.337,1.138-0.385c0.119-0.014,0.184,0.032,0.186,0.136c0.005,0.299,0.002,0.598,0.002,0.91
					c-0.083,0.02-0.151,0.04-0.221,0.052c-0.304,0.052-0.608,0.101-0.912,0.153c-0.04,0.007-0.08,0.016-0.117,0.03
					c-0.076,0.027-0.12,0.083-0.125,0.163c-0.005,0.073-0.005,0.146-0.005,0.219c0.001,0.844,0.003,1.689,0.004,2.533
					c0,0.073,0.002,0.147-0.005,0.219c-0.01,0.098-0.059,0.146-0.153,0.16c-0.032,0.005-0.065,0.005-0.097,0.005
					c-0.276,0-0.552-0.001-0.828-0.002c-0.032,0-0.065,0.001-0.097-0.002c-0.114-0.011-0.154-0.051-0.166-0.169
					c-0.005-0.048-0.003-0.097-0.003-0.146c0-1.267-0.001-2.533,0-3.799c0-0.324,0.02-0.34,0.348-0.338
					c0.211,0.001,0.422-0.001,0.633,0.001C41.489,27.23,41.568,27.237,41.658,27.241z"/>
			</g>
			<g>
				<path fill="#FFFFFF" d="M32.273,41.412c-0.161,0.016-0.305,0.032-0.45,0.044c-0.048,0.004-0.098,0-0.145-0.008
					c-0.153-0.024-0.215-0.077-0.242-0.229c-0.021-0.119-0.03-0.242-0.031-0.363c-0.004-0.341-0.001-0.681-0.001-1.022
					c-0.001-1.338-0.003-2.677-0.004-4.015c0-0.097,0-0.196,0.017-0.291c0.03-0.163,0.115-0.241,0.28-0.253
					c0.113-0.008,0.228-0.007,0.34,0.008c0.159,0.021,0.245,0.109,0.272,0.268c0.013,0.079,0.012,0.161,0.012,0.242
					c-0.002,0.673-0.008,1.346-0.008,2.02c0,1.046,0.003,2.093,0.004,3.139C32.316,41.098,32.32,41.245,32.273,41.412z"/>
			</g>
			<g>
				<path fill="#FFFFFF" d="M32.27,32.695c0.007,0.069,0.015,0.108,0.015,0.147c-0.002,0.381-0.004,0.763-0.008,1.144
					c0,0.014-0.014,0.027-0.03,0.056c-0.217,0.016-0.441-0.003-0.665-0.034c-0.075-0.01-0.11-0.065-0.125-0.132
					c-0.058-0.255-0.08-0.513-0.041-0.774c0.006-0.04,0.017-0.08,0.021-0.12c0.02-0.178,0.075-0.203,0.229-0.232
					c0.04-0.007,0.081-0.008,0.121-0.012C31.94,32.725,32.093,32.711,32.27,32.695z"/>
			</g>
		</g>
	</g>
</g>
</svg>
