<?xml version="1.0" encoding="utf-8"?>
<!-- Generator: Adobe Illustrator 18.0.0, SVG Export Plug-In . SVG Version: 6.00 Build 0)  -->
<!DOCTYPE svg PUBLIC "-//W3C//DTD SVG 1.1//EN" "http://www.w3.org/Graphics/SVG/1.1/DTD/svg11.dtd">
<svg version="1.1" xmlns="http://www.w3.org/2000/svg" xmlns:xlink="http://www.w3.org/1999/xlink" x="0px" y="0px"
	 viewBox="0 0 54 54" enable-background="new 0 0 54 54" xml:space="preserve">
<g id="_x31_170px_grid">
</g>
<g id="Layer_3">
</g>
<g id="Layer_2">
</g>
<g id="SVG">
</g>
<g id="Layer_4">
	<g>
		<circle opacity="0.75" fill="#6BAAFF" cx="27" cy="27" r="25"/>
		<g>
			<g>
				<path fill="#FFFFFF" d="M26.427,26.785c1.385-1.728,2.34-3.674,2.893-5.811c0.976-3.773,0.694-7.46-0.862-11.034
					c-0.939-2.156-2.293-4.021-4.076-5.58C27.302,11.634,27.976,19.098,26.427,26.785z"/>
			</g>
			<g>
				<path fill="#FFFFFF" d="M42.761,44.526c0.016-0.01,0.031-0.019,0.047-0.028c-0.024-0.058-0.042-0.119-0.074-0.173
					c-0.551-0.949-1.074-1.915-1.66-2.842c-1.269-2.007-2.553-4.004-3.864-5.984c-0.721-1.089-1.477-2.159-2.273-3.194
					c-0.9-1.171-2.015-2.14-3.155-3.07c-1.766-1.439-4.344-1.626-6.342-0.494c-0.088,0.05-0.167,0.117-0.295,0.209
					c0.137,0.05,0.21,0.075,0.282,0.103c0.614,0.238,1.238,0.455,1.841,0.719c2.337,1.025,4.357,2.512,6.119,4.342
					c1.991,2.068,3.965,4.152,5.913,6.261c0.846,0.916,1.608,1.91,2.407,2.87C42.06,43.67,42.409,44.099,42.761,44.526z"/>
			</g>
			<g>
				<path fill="#FFFFFF" d="M31.568,6.791c1.452,7.021,0.427,13.637-3.136,19.864c2.975-2.205,4.867-5.113,5.572-8.746
					C34.789,13.868,33.937,10.157,31.568,6.791z"/>
			</g>
			<g>
				<path fill="#FFFFFF" d="M23.029,31.414c-0.189,1.208,0.01,2.241,0.757,3.09c1.203,1.366,2.667,2.412,4.318,3.168
					c2.825,1.294,5.795,2.11,8.861,2.591c0.289,0.045,0.579,0.082,0.869,0.123c0.01-0.03,0.021-0.06,0.031-0.09
					C32.257,38.497,27.339,35.545,23.029,31.414z"/>
			</g>
			<g>
				<path fill="#FFFFFF" d="M22.524,30.969c-0.007-0.026-0.015-0.053-0.022-0.079c-0.092,0.014-0.184,0.026-0.276,0.041
					c-1.454,0.243-2.915,0.419-4.392,0.316c-0.504-0.035-1.009-0.135-1.498-0.266c-0.364-0.098-0.437-0.433-0.17-0.693
					c0.291-0.284,0.595-0.572,0.94-0.781c1.329-0.804,2.741-1.436,4.214-1.928c0.383-0.128,0.769-0.248,1.153-0.372
					c-0.099-0.077-0.19-0.088-0.282-0.09c-1.509-0.031-2.969,0.241-4.379,0.764c-1.142,0.424-2.214,0.978-3.048,1.901
					c-0.341,0.377-0.65,0.805-0.623,1.324c0.021,0.413-0.181,0.593-0.473,0.763c-0.06,0.035-0.12,0.07-0.178,0.109
					c-2.408,1.607-4.563,3.506-6.488,5.666c-0.078,0.087-0.135,0.192-0.203,0.289c0.085,0.003,0.124-0.027,0.161-0.058
					c1.055-0.855,2.086-1.743,3.172-2.557c1.456-1.092,3.027-2.007,4.661-2.808c0.108-0.053,0.243-0.076,0.364-0.073
					c0.577,0.015,1.159,0.104,1.731,0.058c1.566-0.127,3.061-0.578,4.535-1.102C21.793,31.258,22.157,31.11,22.524,30.969z"/>
			</g>
			<g>
				<path fill="#FFFFFF" d="M37.578,14.053c-0.903,5.105-3.277,9.398-7.092,12.903C35.172,25.53,39.074,20.017,37.578,14.053z"/>
			</g>
			<g>
				<path fill="#FFFFFF" d="M39.536,21.659c-1.881,2.693-4.312,4.74-7.349,6.188C35.732,28.048,39.169,25.162,39.536,21.659z"/>
			</g>
			<g>
				<path fill="#FFFFFF" d="M40.15,26.839c-1.988,1.453-4.171,2.135-6.653,2.081C36.001,30.557,39.373,29.309,40.15,26.839z"/>
			</g>
		</g>
	</g>
</g>
</svg>
