<?xml version="1.0" encoding="utf-8"?>
<!-- Generator: Adobe Illustrator 16.0.0, SVG Export Plug-In . SVG Version: 6.00 Build 0)  -->
<!DOCTYPE svg PUBLIC "-//W3C//DTD SVG 1.1//EN" "http://www.w3.org/Graphics/SVG/1.1/DTD/svg11.dtd">
<svg version="1.1" xmlns="http://www.w3.org/2000/svg" xmlns:xlink="http://www.w3.org/1999/xlink" x="0px" y="0px" width="60px"
	 height="60px" viewBox="0 0 60 60" enable-background="new 0 0 60 60" xml:space="preserve">
<g id="Layer_3">
</g>
<g id="Layer_2">
	<g>
		<circle fill="#66CC66" cx="30" cy="30" r="30"/>
		<g>
			<path fill="#FFFFFF" d="M14.501,23.604c0,0.285-0.057,0.555-0.169,0.803c-0.114,0.25-0.265,0.465-0.453,0.646
				c-0.19,0.183-0.417,0.324-0.68,0.431c-0.264,0.105-0.54,0.158-0.826,0.158c-0.604,0-1.109-0.2-1.518-0.6
				c-0.407-0.4-0.61-0.879-0.61-1.438c0-0.272,0.052-0.532,0.159-0.781c0.105-0.248,0.256-0.465,0.451-0.645
				c0.197-0.183,0.424-0.33,0.68-0.442c0.256-0.112,0.536-0.169,0.838-0.169c0.286,0,0.562,0.053,0.826,0.158
				c0.263,0.105,0.49,0.248,0.68,0.43c0.188,0.182,0.339,0.396,0.453,0.646C14.444,23.049,14.501,23.316,14.501,23.604z
				 M10.517,38.477V27.203h3.712v11.273H10.517z"/>
			<path fill="#FFFFFF" d="M24.575,38.477v-6.157c0-0.317-0.028-0.619-0.079-0.906c-0.054-0.286-0.14-0.54-0.262-0.759
				c-0.12-0.218-0.291-0.391-0.509-0.52c-0.219-0.129-0.495-0.193-0.827-0.193s-0.623,0.064-0.872,0.193s-0.457,0.306-0.623,0.532
				c-0.166,0.227-0.291,0.486-0.372,0.781c-0.084,0.293-0.125,0.599-0.125,0.915v6.113h-3.736V27.203h3.6v1.561h0.046
				c0.136-0.239,0.313-0.479,0.533-0.713c0.217-0.234,0.475-0.434,0.768-0.599c0.294-0.166,0.615-0.302,0.963-0.407
				c0.347-0.107,0.717-0.158,1.109-0.158c0.753,0,1.395,0.135,1.923,0.406c0.529,0.271,0.955,0.623,1.279,1.053
				c0.326,0.432,0.558,0.925,0.702,1.482c0.144,0.559,0.216,1.117,0.216,1.676v6.973H24.575z"/>
			<path fill="#FFFFFF" d="M39.652,38.477v-1.473h-0.046c-0.361,0.575-0.879,1.016-1.549,1.325c-0.672,0.31-1.385,0.464-2.141,0.464
				c-0.844,0-1.599-0.166-2.262-0.497c-0.665-0.331-1.227-0.774-1.688-1.325c-0.46-0.551-0.811-1.188-1.052-1.912
				c-0.241-0.726-0.363-1.479-0.363-2.264s0.125-1.537,0.374-2.254c0.249-0.716,0.604-1.346,1.064-1.89
				c0.459-0.544,1.017-0.973,1.675-1.29c0.656-0.316,1.393-0.475,2.207-0.475c0.829,0,1.531,0.158,2.106,0.475
				c0.573,0.317,1.019,0.664,1.335,1.041h0.044v-7.041h3.712v17.115H39.652z M39.516,32.816c0-0.362-0.064-0.717-0.191-1.064
				c-0.129-0.346-0.31-0.656-0.543-0.927c-0.234-0.272-0.518-0.489-0.85-0.657c-0.332-0.166-0.709-0.249-1.131-0.249
				c-0.438,0-0.824,0.083-1.155,0.249c-0.332,0.168-0.611,0.381-0.838,0.646c-0.227,0.264-0.396,0.569-0.509,0.916
				c-0.114,0.348-0.169,0.701-0.169,1.064c0,0.361,0.055,0.721,0.169,1.074c0.112,0.355,0.282,0.668,0.509,0.939
				c0.227,0.272,0.506,0.492,0.838,0.658c0.332,0.165,0.717,0.248,1.155,0.248c0.422,0,0.799-0.083,1.131-0.248
				c0.332-0.166,0.615-0.386,0.85-0.658c0.234-0.271,0.415-0.58,0.543-0.927C39.452,33.533,39.516,33.18,39.516,32.816z"/>
			<path fill="#FFFFFF" d="M50.246,36.484c0,0.635-0.223,1.163-0.667,1.585c-0.446,0.422-0.979,0.634-1.598,0.634
				c-0.316,0-0.613-0.057-0.894-0.17c-0.28-0.113-0.525-0.269-0.735-0.464c-0.212-0.197-0.377-0.428-0.5-0.69
				c-0.12-0.264-0.18-0.555-0.18-0.872c0-0.302,0.061-0.589,0.18-0.86c0.122-0.271,0.288-0.508,0.5-0.713
				c0.21-0.205,0.455-0.367,0.735-0.486c0.28-0.121,0.577-0.182,0.894-0.182c0.619,0,1.151,0.211,1.598,0.633
				C50.023,35.322,50.246,35.852,50.246,36.484z"/>
		</g>
	</g>
	<g>
		<defs>
			<rect id="SVGID_171_" x="-493.746" y="100.728" width="1802.31" height="523.741"/>
		</defs>
		<clipPath id="SVGID_2_">
			<use xlink:href="#SVGID_171_"  overflow="visible"/>
		</clipPath>
		<g clip-path="url(#SVGID_2_)">
			<rect x="-614.9" y="-94.039" opacity="0.75" fill="#EE4455" width="2014.504" height="965.85"/>
		</g>
	</g>
</g>
<g id="Capa_4">
</g>
</svg>
