<?xml version="1.0" encoding="utf-8"?>
<!-- Generator: Adobe Illustrator 18.0.0, SVG Export Plug-In . SVG Version: 6.00 Build 0)  -->
<!DOCTYPE svg PUBLIC "-//W3C//DTD SVG 1.1//EN" "http://www.w3.org/Graphics/SVG/1.1/DTD/svg11.dtd">
<svg version="1.1" xmlns="http://www.w3.org/2000/svg" xmlns:xlink="http://www.w3.org/1999/xlink" x="0px" y="0px"
	 viewBox="0 0 54 54" enable-background="new 0 0 54 54" xml:space="preserve">
<g id="_x31_170px_grid">
</g>
<g id="Layer_3">
</g>
<g id="Layer_2">
</g>
<g id="SVG">
</g>
<g id="Layer_4">
	<g>
		<circle opacity="0.75" fill="#AF3042" cx="27" cy="27" r="25"/>
		<g>
			<g>
				<path fill="#FFFFFF" d="M16.975,30.01c-0.703,0.002-1.391,0.001-2.089,0c-0.019-0.054-0.042-0.097-0.047-0.142
					c-0.008-0.08-0.005-0.162-0.005-0.243c0-1.397,0-2.794,0-4.191c0-0.114,0.001-0.228-0.008-0.341
					c-0.007-0.088-0.022-0.178-0.046-0.263c-0.07-0.245-0.24-0.385-0.49-0.41c-0.152-0.015-0.309-0.01-0.461,0.006
					c-0.193,0.021-0.385,0.061-0.576,0.097c-0.038,0.007-0.073,0.031-0.124,0.054c-0.005,0.136-0.014,0.272-0.014,0.409
					c-0.001,1.519-0.001,3.038-0.001,4.557c0,0.097,0.002,0.195-0.002,0.292c-0.001,0.047-0.012,0.094-0.02,0.151
					c-0.054,0.009-0.1,0.023-0.146,0.023c-0.593,0.002-1.186,0.001-1.779,0.001c-0.04,0-0.079-0.006-0.103-0.007
					c-0.076-0.061-0.056-0.13-0.056-0.192c0.001-0.625,0.004-1.251,0.006-1.876c0.004-0.918,0.008-1.836,0.011-2.753
					c0-0.081-0.002-0.163-0.018-0.242c-0.052-0.253-0.202-0.418-0.453-0.49c-0.192-0.055-0.387-0.047-0.58-0.023
					c-0.169,0.021-0.336,0.057-0.503,0.092c-0.139,0.029-0.176,0.074-0.187,0.215c-0.006,0.073-0.003,0.146-0.003,0.219
					c0,1.576,0,3.152,0,4.728c0,0.097-0.003,0.193-0.005,0.3c-0.056,0.012-0.101,0.03-0.146,0.03
					c-0.585,0.002-1.17,0.001-1.754,0.001c-0.039,0-0.079-0.007-0.134-0.012c-0.007-0.051-0.019-0.096-0.019-0.141
					c0.007-2.209,0.014-4.418,0.022-6.628c0-0.064,0.006-0.128,0.01-0.205c0.054-0.019,0.105-0.045,0.158-0.053
					c0.353-0.051,0.708-0.097,1.062-0.146c0.097-0.013,0.175,0.015,0.237,0.092c0.092,0.113,0.186,0.223,0.275,0.331
					c0.108,0.003,0.184-0.049,0.265-0.081c0.257-0.101,0.512-0.206,0.782-0.27c0.731-0.174,1.434-0.114,2.104,0.242
					c0.022,0.011,0.044,0.021,0.065,0.033c0.2,0.111,0.402,0.111,0.608,0.018c0.297-0.135,0.604-0.236,0.924-0.302
					c0.59-0.121,1.18-0.113,1.764,0.03c0.593,0.144,1.008,0.505,1.235,1.074c0.168,0.421,0.225,0.862,0.232,1.312
					c0.005,0.357,0.001,0.715,0.004,1.072c0.011,1.113,0.023,2.225,0.034,3.338C17.005,29.801,17.015,29.891,16.975,30.01z"/>
			</g>
			<g>
				<path fill="#FFFFFF" d="M34.918,23.005c0.174-0.057,0.362-0.057,0.545-0.088c0.224-0.038,0.451-0.056,0.676-0.09
					c0.116-0.017,0.205,0.012,0.279,0.104c0.086,0.107,0.179,0.208,0.266,0.308c0.123-0.009,0.213-0.067,0.309-0.108
					c0.554-0.237,1.131-0.351,1.734-0.315c0.7,0.043,1.308,0.3,1.799,0.81c0.367,0.38,0.582,0.835,0.669,1.354
					c0.053,0.313,0.067,0.628,0.071,0.946c0.012,0.974,0.035,1.948,0.053,2.923c0.006,0.341,0.009,0.682,0.012,1.023
					c0,0.055-0.008,0.111-0.013,0.173c-0.038,0.012-0.067,0.027-0.097,0.029c-0.592,0.046-1.184,0.052-1.777,0.028
					c-0.08-0.003-0.16-0.017-0.229-0.025c-0.108-0.137-0.108-0.282-0.108-0.429c0.001-1.324,0.001-2.648,0-3.972
					c0-0.146,0.001-0.293-0.008-0.438c-0.032-0.52-0.289-0.777-0.812-0.82c-0.327-0.027-0.648,0.016-0.969,0.071
					c-0.095,0.016-0.189,0.035-0.293,0.055c-0.03,0.308-0.011,0.607-0.014,0.905c-0.003,0.301-0.001,0.601-0.001,0.902
					c0,0.309,0,0.617,0,0.926c0,0.301,0,0.601,0,0.902c0,0.301,0,0.601,0,0.902c-0.001,0.3,0.003,0.599-0.003,0.905
					c-0.054,0.011-0.092,0.025-0.13,0.025c-0.634,0.002-1.267,0.002-1.901,0.001c-0.023,0-0.046-0.009-0.077-0.016
					c-0.007-0.03-0.02-0.06-0.02-0.09c0.001-2.274,0.003-4.548,0.006-6.822C34.886,23.06,34.904,23.038,34.918,23.005z"/>
			</g>
			<g>
				<path fill="#FFFFFF" d="M47.738,28.511c0.218,0.041,0.422-0.004,0.633,0.034c0.108,0.376,0.179,0.758,0.269,1.141
					c-0.089,0.103-0.203,0.16-0.323,0.21c-0.369,0.152-0.749,0.27-1.139,0.35c-0.377,0.078-0.707-0.022-0.989-0.282
					c-0.083-0.077-0.169-0.151-0.278-0.248c-0.059-0.004-0.13,0.056-0.208,0.096c-0.335,0.169-0.683,0.299-1.049,0.386
					c-0.575,0.137-1.132,0.101-1.657-0.181c-0.611-0.328-1.037-0.816-1.17-1.507c-0.165-0.855,0.094-1.575,0.777-2.124
					c0.397-0.32,0.862-0.488,1.372-0.503c0.308-0.009,0.617,0.011,0.925,0.026c0.227,0.011,0.453,0.037,0.68,0.054
					c0.109,0.008,0.147-0.024,0.148-0.139c0.002-0.203,0.008-0.407-0.006-0.609c-0.032-0.471-0.348-0.781-0.819-0.801
					c-0.137-0.006-0.278,0.004-0.411,0.032c-0.429,0.09-0.855,0.192-1.283,0.289c-0.055,0.012-0.111,0.018-0.17,0.028
					c-0.095-0.079-0.126-0.192-0.173-0.293c-0.215-0.469-0.307-0.728-0.337-0.941c0.025-0.013,0.051-0.031,0.08-0.043
					c0.63-0.241,1.267-0.458,1.928-0.601c0.852-0.185,1.629-0.016,2.337,0.481c0.524,0.368,0.818,0.878,0.858,1.515
					c0.026,0.404,0.011,0.812,0.009,1.218c-0.003,0.747-0.01,1.495-0.014,2.242C47.729,28.39,47.734,28.438,47.738,28.511z
					 M45.704,27.288c-0.022-0.015-0.029-0.023-0.035-0.023c-0.413-0.002-0.826-0.017-1.238-0.001
					c-0.238,0.009-0.399,0.169-0.493,0.383c-0.176,0.404,0.079,0.913,0.508,1.023c0.062,0.016,0.129,0.027,0.192,0.022
					c0.299-0.025,0.597-0.054,0.895-0.087c0.153-0.017,0.198-0.065,0.199-0.219c0.003-0.316,0.001-0.632-0.003-0.948
					C45.729,27.383,45.712,27.329,45.704,27.288z"/>
			</g>
			<g>
				<path fill="#FFFFFF" d="M24.15,26.528c-0.002,0.488-0.058,0.971-0.212,1.438c-0.247,0.749-0.678,1.362-1.353,1.789
					c-0.376,0.238-0.791,0.374-1.227,0.449c-0.67,0.116-1.326,0.065-1.967-0.168c-0.76-0.276-1.333-0.77-1.687-1.497
					c-0.629-1.291-0.645-2.598-0.049-3.903c0.402-0.88,1.086-1.441,2.022-1.69c0.791-0.21,1.573-0.201,2.343,0.098
					c0.874,0.339,1.48,0.948,1.826,1.817C24.059,25.395,24.172,25.949,24.15,26.528z M22.072,26.538
					c-0.028-0.282-0.047-0.566-0.087-0.846c-0.035-0.25-0.114-0.489-0.233-0.714c-0.318-0.6-0.923-0.736-1.452-0.578
					c-0.315,0.094-0.524,0.314-0.672,0.597c-0.152,0.292-0.228,0.605-0.268,0.93c-0.051,0.413-0.046,0.826,0.003,1.239
					c0.045,0.374,0.137,0.735,0.339,1.057c0.472,0.753,1.556,0.732,2-0.036c0.11-0.191,0.186-0.396,0.238-0.61
					C22.024,27.236,22.06,26.89,22.072,26.538z"/>
			</g>
			<g>
				<path fill="#FFFFFF" d="M34.464,27.057c-1.341,0-2.653-0.07-3.953-0.063c-0.065,0.068-0.059,0.133-0.049,0.198
					c0.044,0.274,0.114,0.542,0.264,0.779c0.319,0.508,0.794,0.721,1.382,0.71c0.473-0.008,0.936-0.096,1.398-0.189
					c0.159-0.032,0.316-0.072,0.475-0.106c0.055-0.012,0.111-0.015,0.165-0.022c0.062,0.169,0.172,0.94,0.174,1.207
					c-0.054,0.075-0.141,0.102-0.222,0.137c-0.622,0.27-1.269,0.452-1.946,0.516c-0.266,0.025-0.535,0.05-0.802,0.043
					c-0.937-0.024-1.689-0.415-2.244-1.174c-0.378-0.517-0.581-1.102-0.674-1.73c-0.059-0.395-0.072-0.793-0.05-1.191
					c0.031-0.564,0.146-1.111,0.383-1.626c0.447-0.971,1.216-1.516,2.259-1.69c0.562-0.094,1.119-0.054,1.665,0.102
					c0.791,0.226,1.357,0.717,1.668,1.482c0.268,0.66,0.355,1.349,0.262,2.055C34.594,26.677,34.521,26.854,34.464,27.057z
					 M32.586,25.634c-0.017-0.403-0.124-0.743-0.364-1.035c-0.134-0.164-0.316-0.252-0.525-0.272
					c-0.096-0.009-0.194-0.006-0.291,0.001c-0.374,0.03-0.632,0.222-0.778,0.568c-0.08,0.189-0.113,0.387-0.13,0.59
					c-0.004,0.045,0.005,0.091,0.009,0.151C31.199,25.691,31.875,25.685,32.586,25.634z"/>
			</g>
			<g>
				<path fill="#FFFFFF" d="M24.616,22.985c0.488-0.059,0.945-0.115,1.406-0.171c0.172,0.179,0.266,0.41,0.441,0.595
					c0.081-0.046,0.159-0.088,0.236-0.132c0.498-0.283,1.024-0.49,1.59-0.587c0.118-0.02,0.239-0.029,0.356-0.042
					c0.06,0.09,0.028,0.171,0.019,0.248c-0.031,0.258-0.068,0.515-0.102,0.772c-0.03,0.225-0.06,0.45-0.092,0.675
					c-0.01,0.071-0.027,0.142-0.043,0.223c-0.282,0.062-0.568,0.047-0.846,0.097c-0.279,0.051-0.559,0.097-0.822,0.142
					c-0.07,0.09-0.05,0.174-0.051,0.253c-0.002,0.52-0.001,1.039-0.001,1.559c0,1.031,0,2.062,0,3.093
					c0,0.088-0.004,0.175-0.006,0.268c-0.044,0.013-0.074,0.03-0.104,0.03c-0.625,0.002-1.25,0.002-1.875,0.001
					c-0.023,0-0.046-0.01-0.084-0.02c-0.007-0.044-0.017-0.089-0.019-0.135c-0.003-0.057-0.001-0.114-0.001-0.17
					c0-2.127,0-4.254,0-6.381C24.616,23.206,24.616,23.109,24.616,22.985z"/>
			</g>
		</g>
	</g>
</g>
</svg>
