<?xml version="1.0" encoding="utf-8"?>
<!-- Generator: Adobe Illustrator 18.0.0, SVG Export Plug-In . SVG Version: 6.00 Build 0)  -->
<!DOCTYPE svg PUBLIC "-//W3C//DTD SVG 1.1//EN" "http://www.w3.org/Graphics/SVG/1.1/DTD/svg11.dtd">
<svg version="1.1" xmlns="http://www.w3.org/2000/svg" xmlns:xlink="http://www.w3.org/1999/xlink" x="0px" y="0px"
	 viewBox="0 0 54 54" enable-background="new 0 0 54 54" xml:space="preserve">
<g id="_x31_170px_grid">
</g>
<g id="Layer_3">
</g>
<g id="Layer_2">
</g>
<g id="SVG">
</g>
<g id="Layer_4">
	<g>
		<circle opacity="0.75" fill="#FF8200" cx="27" cy="27" r="25"/>
		<g>
			<g>
				<path fill="#FFFFFF" d="M22.584,37.07c-0.059,0.029-0.124,0.05-0.177,0.089c-0.094,0.068-0.181,0.146-0.269,0.219
					c-0.122,0.002-0.176-0.076-0.218-0.167c-0.045-0.097-0.029-0.194,0.027-0.278c0.109-0.164,0.247-0.299,0.419-0.398
					c0.066-0.038,0.131-0.076,0.201-0.118c-0.017-0.049-0.03-0.084-0.047-0.129c-0.154-0.002-0.248,0.104-0.355,0.18
					c-0.102,0.072-0.19,0.164-0.295,0.215c-0.107-0.048-0.143-0.127-0.159-0.214c-0.018-0.098-0.008-0.193,0.041-0.283
					c0.062-0.114,0.15-0.203,0.257-0.273c0.081-0.053,0.166-0.099,0.253-0.15c0.028-0.105-0.031-0.191-0.057-0.281
					c-0.146-0.495-0.253-0.997-0.273-1.516c-0.018-0.472,0.034-0.931,0.216-1.371c0.011-0.027,0.02-0.055,0.027-0.083
					c0.005-0.019,0.004-0.038,0.008-0.078c-0.049-0.027-0.103-0.065-0.163-0.087c-0.283-0.101-0.57-0.194-0.853-0.297
					c-0.65-0.237-1.273-0.531-1.863-0.894c-0.433-0.266-0.832-0.574-1.167-0.959c-0.032-0.037-0.064-0.074-0.103-0.102
					c-0.1-0.074-0.224-0.067-0.321,0.014c-0.022,0.019-0.044,0.039-0.061,0.062c-0.104,0.141-0.236,0.146-0.39,0.095
					c-0.187-0.062-0.353-0.161-0.508-0.28c-0.388-0.297-0.732-0.64-1.036-1.021c-0.255-0.319-0.498-0.647-0.751-0.968
					c-0.512-0.648-1.027-1.295-1.542-1.94c-0.053-0.066-0.116-0.124-0.179-0.192c-0.355,0.274-0.724,0.228-1.091,0.092
					c-0.358-0.132-0.676-0.34-0.98-0.569c-0.475-0.358-0.901-0.77-1.319-1.192c-0.541-0.545-1.08-1.093-1.632-1.625
					c-0.462-0.446-0.959-0.852-1.485-1.221c-0.311-0.218-0.632-0.418-0.986-0.561c-0.026-0.01-0.047-0.03-0.074-0.047
					c0.118-0.052,0.125-0.055,0.205-0.05c0.33,0.019,0.66,0.037,0.99,0.057c0.476,0.028,0.951,0.058,1.426,0.086
					c1.164,0.066,2.329,0.13,3.494,0.197c0.999,0.058,1.999,0.113,2.998,0.179c0.601,0.039,1.202,0.071,1.799,0.16
					c0.84,0.125,1.659,0.318,2.445,0.645c0.517,0.215,0.982,0.505,1.379,0.906c0.247,0.249,0.31,0.528,0.222,0.854
					c-0.076,0.281-0.161,0.56-0.237,0.842c-0.132,0.492-0.189,0.991-0.159,1.501c0.024,0.412,0.161,0.774,0.434,1.088
					c0.291,0.335,0.628,0.608,1.024,0.806c0.21,0.105,0.427,0.185,0.665,0.202c0.3,0.021,0.563,0.138,0.805,0.312
					c0.206,0.148,0.39,0.32,0.563,0.505c0.33,0.354,0.409,0.767,0.275,1.218c-0.069,0.23-0.184,0.446-0.282,0.675
					c0.035,0.034,0.075-0.005,0.113-0.029c0.521-0.326,1.079-0.576,1.65-0.799c0.561-0.219,1.122-0.44,1.68-0.666
					c0.216-0.088,0.429-0.183,0.635-0.293c1.188-0.635,1.915-1.617,2.186-2.936c0.121-0.585,0.141-1.175,0.082-1.77
					c-0.039-0.386-0.093-0.77-0.164-1.16c-0.133-0.045-0.262-0.067-0.411-0.05c-0.014,0.071-0.031,0.136-0.038,0.201
					c-0.018,0.187-0.126,0.298-0.294,0.363c-0.136,0.053-0.271,0.107-0.404,0.166c-0.034,0.015-0.062,0.045-0.087,0.073
					c-0.01,0.011-0.004,0.036-0.006,0.054c0.248,0.05,0.303,0.041,1.125-0.165c0.094,0.125,0.101,0.176,0.002,0.23
					c-0.333,0.18-0.666,0.361-1.008,0.524c-0.252,0.12-0.56-0.094-0.562-0.366c-0.001-0.184,0.04-0.351,0.167-0.483
					c0.127-0.133,0.261-0.262,0.406-0.374c0.109-0.083,0.167-0.179,0.19-0.31c0.031-0.182,0.072-0.362,0.11-0.542
					c0.004-0.018,0.018-0.034,0.037-0.069c0.166-0.074,0.372-0.004,0.568-0.084c0-0.067,0.008-0.134-0.001-0.199
					c-0.051-0.377-0.131-0.749-0.306-1.089c-0.084-0.162-0.187-0.321-0.307-0.458c-0.237-0.272-0.541-0.323-0.876-0.21
					c-0.207,0.07-0.381,0.199-0.528,0.355c-0.153,0.162-0.293,0.337-0.423,0.518c-0.143,0.2-0.303,0.379-0.508,0.517
					c-0.441,0.296-0.862,0.273-1.245-0.093c-0.14-0.134-0.289-0.211-0.478-0.248c-0.216-0.042-0.428-0.117-0.585-0.28
					c0.01-0.07,0.056-0.059,0.091-0.059c0.126,0.002,0.252,0.009,0.378,0.012c0.114,0.003,0.18-0.061,0.214-0.163
					c0.054-0.158,0.035-0.306-0.068-0.441c-0.096-0.126-0.218-0.224-0.36-0.291c-0.157-0.075-0.322-0.135-0.483-0.201
					c-0.043-0.018-0.087-0.034-0.124-0.048c-0.004-0.067,0.026-0.084,0.069-0.085c0.206-0.001,0.406,0.038,0.599,0.107
					c0.409,0.147,0.67,0.43,0.735,0.863c0.027,0.18,0.116,0.275,0.269,0.343c0.203,0.09,0.413,0.103,0.628,0.079
					c0.11-0.012,0.205-0.064,0.28-0.144c0.066-0.071,0.126-0.148,0.183-0.226c0.137-0.189,0.268-0.382,0.407-0.569
					c0.158-0.213,0.351-0.388,0.58-0.525c0.346-0.205,0.698-0.215,1.058-0.043c0.327,0.157,0.579,0.396,0.735,0.722
					c0.167,0.35,0.321,0.708,0.466,1.068c0.094,0.234,0.165,0.477,0.238,0.719c0.049,0.161,0.111,0.31,0.245,0.421
					c0.044,0.036,0.076,0.088,0.109,0.135c0.138,0.2,0.175,0.413,0.053,0.63c-0.063,0.112-0.063,0.218-0.035,0.335
					c0.05,0.208,0.104,0.415,0.139,0.626c0.188,1.144,0.048,2.246-0.436,3.302c-0.294,0.642-0.739,1.161-1.293,1.59
					c-0.424,0.329-0.888,0.595-1.37,0.828c-0.736,0.355-1.498,0.648-2.261,0.938c-0.3,0.114-0.6,0.228-0.894,0.355
					c-0.387,0.168-0.735,0.396-1.026,0.706c-0.318,0.339-0.497,0.737-0.528,1.202c-0.023,0.35-0.013,0.699,0.032,1.048
					c0.032,0.251,0.057,0.502,0.088,0.753c0.008,0.066,0.025,0.132,0.041,0.209c0.144,0.061,0.278,0.137,0.443,0.113
					c0.069-0.01,0.141-0.009,0.188,0.051c0.06,0.078,0.049,0.162-0.006,0.257c-0.062-0.015-0.124-0.033-0.188-0.046
					c-0.105-0.02-0.254,0.126-0.195,0.253c0.012,0.026,0.025,0.065,0.045,0.07c0.124,0.034,0.22,0.174,0.373,0.104
					c0.017-0.008,0.038-0.005,0.058-0.005c0.062-0.001,0.113,0.019,0.147,0.076c0.029,0.049,0.03,0.052-0.031,0.181
					c-0.24-0.017-0.24-0.017-0.29,0.124c0.086,0.055,0.175,0.111,0.264,0.167c0.285-0.075,0.285-0.075,0.346,0.142
					c-0.057,0.007-0.112,0.011-0.165,0.021c-0.139,0.026-0.191,0.104-0.137,0.226c0.039,0.088,0.088,0.175,0.149,0.249
					c0.164,0.2,0.386,0.325,0.616,0.431c0.118,0.054,0.248,0.033,0.37-0.012c0.158-0.058,0.294-0.148,0.416-0.263
					c0.176-0.167,0.349-0.339,0.533-0.497c0.283-0.244,0.6-0.423,0.968-0.516c0.939-0.238,1.738,0.563,1.633,1.445
					c-0.04,0.341-0.121,0.671-0.281,0.975c-0.108,0.206-0.145,0.413-0.124,0.645c0.042,0.459-0.06,0.888-0.324,1.273
					c-0.166,0.241-0.387,0.399-0.659,0.506c-0.469,0.186-0.915,0.137-1.342-0.111c-0.176-0.102-0.347-0.217-0.503-0.348
					c-0.417-0.35-0.823-0.712-1.233-1.07c-0.066-0.058-0.125-0.123-0.192-0.179c-0.269-0.225-0.569-0.275-0.9-0.155
					c-0.301,0.109-0.548,0.293-0.745,0.542c-0.145,0.183-0.288,0.369-0.406,0.569c-0.238,0.402-0.593,0.479-1.004,0.365
					c-0.114-0.032-0.222-0.074-0.31-0.154c-0.281-0.255-0.56-0.511-0.839-0.768c-0.013-0.012-0.018-0.034-0.028-0.054
					c0.054-0.104,0.159-0.103,0.252-0.106c0.118-0.004,0.234,0.026,0.327,0.103c0.082,0.068,0.151,0.152,0.234,0.219
					c0.105,0.085,0.215,0.165,0.328,0.238c0.047,0.031,0.107,0.047,0.163,0.059c0.17,0.035,0.311-0.015,0.4-0.167
					c0.063-0.108,0.114-0.225,0.165-0.34c0.145-0.333,0.334-0.636,0.593-0.894c0.254-0.253,0.55-0.425,0.908-0.493
					c0.256-0.049,0.503-0.019,0.749,0.05c0.382,0.107,0.709,0.309,1.007,0.568c0.44,0.383,0.884,0.761,1.327,1.141
					c0.066,0.057,0.133,0.115,0.204,0.164c0.423,0.293,0.905,0.144,1.093-0.337c0.032-0.081,0.057-0.167,0.066-0.253
					c0.018-0.164,0.042-0.331,0.027-0.493c-0.025-0.277,0.043-0.507,0.215-0.731c0.354-0.462,0.263-0.951,0.026-1.428
					c-0.084-0.169-0.242-0.252-0.434-0.241c-0.096,0.005-0.192,0.026-0.285,0.053c-0.247,0.073-0.459,0.21-0.654,0.373
					c-0.321,0.267-0.639,0.54-0.96,0.807c-0.104,0.087-0.211,0.173-0.325,0.247c-0.334,0.216-0.675,0.222-1.014,0.008
					c-0.25-0.158-0.449-0.37-0.632-0.599c-0.054-0.068-0.105-0.14-0.164-0.205c-0.059-0.065-0.138-0.069-0.208-0.014
					c-0.045,0.036-0.081,0.083-0.125,0.121c-0.058,0.05-0.137,0.055-0.188,0.017c-0.06-0.044-0.085-0.143-0.042-0.21
					c0.031-0.047,0.073-0.091,0.119-0.124c0.054-0.037,0.118-0.059,0.176-0.087c-0.026-0.075-0.075-0.109-0.136-0.07
					c-0.156,0.097-0.309,0.201-0.459,0.307c-0.078,0.056-0.148,0.124-0.236,0.199c-0.051-0.05-0.112-0.089-0.137-0.144
					c-0.026-0.057-0.028-0.132-0.019-0.196c0.018-0.129,0.095-0.231,0.182-0.326c0.064-0.069,0.123-0.143,0.184-0.215
					c0.099,0.005,0.168-0.038,0.236-0.137C22.67,36.979,22.67,36.979,22.584,37.07z"/>
			</g>
			<g>
				<path fill="#FFFFFF" d="M49.04,20.781c-0.148,0.071-0.298,0.137-0.443,0.213c-0.354,0.185-0.678,0.418-0.994,0.661
					c-0.579,0.445-1.123,0.93-1.639,1.446c-0.474,0.475-0.943,0.955-1.417,1.429c-0.392,0.393-0.807,0.759-1.265,1.075
					c-0.265,0.183-0.546,0.337-0.854,0.435c-0.319,0.102-0.63,0.119-0.917-0.096c-0.014-0.01-0.036-0.008-0.067-0.015
					c-0.139,0.097-0.246,0.235-0.353,0.373c-0.488,0.63-0.977,1.26-1.463,1.891c-0.392,0.509-0.791,1.011-1.253,1.459
					c-0.21,0.203-0.426,0.399-0.687,0.537c-0.094,0.05-0.192,0.094-0.294,0.124c-0.128,0.039-0.25,0.031-0.337-0.096
					c-0.021-0.032-0.051-0.059-0.082-0.083c-0.107-0.085-0.211-0.086-0.319-0.001c-0.038,0.03-0.071,0.066-0.103,0.103
					c-0.346,0.403-0.766,0.716-1.215,0.991c-0.749,0.459-1.548,0.811-2.374,1.107c-0.229,0.082-0.46,0.157-0.691,0.23
					c-0.14,0.044-0.282,0.059-0.43,0.019c-0.285-0.078-0.433-0.239-0.456-0.531c-0.018-0.232-0.026-0.466-0.034-0.699
					c-0.026-0.699-0.043-1.399-0.077-2.098c-0.015-0.312,0.103-0.545,0.342-0.731c0.182-0.141,0.389-0.22,0.614-0.249
					c0.803-0.103,1.4-0.541,1.891-1.153c0.149-0.185,0.242-0.4,0.288-0.631c0.057-0.287,0.076-0.576,0.049-0.87
					c-0.057-0.624-0.192-1.231-0.42-1.811c-0.091-0.231-0.05-0.408,0.071-0.598c0.138-0.216,0.308-0.399,0.509-0.557
					c0.355-0.279,0.751-0.482,1.169-0.648c0.699-0.278,1.425-0.452,2.165-0.574c0.634-0.105,1.273-0.15,1.915-0.175
					c0.553-0.022,1.106-0.064,1.659-0.097c0.398-0.024,0.796-0.046,1.194-0.068c0.864-0.047,1.728-0.092,2.591-0.142
					c1.174-0.068,2.348-0.14,3.522-0.209c0.067-0.004,0.135,0,0.202,0C49.039,20.755,49.039,20.768,49.04,20.781z"/>
			</g>
			<g>
				<path fill="#FFFFFF" d="M36.801,37.973c-0.046,0.073-0.107,0.062-0.164,0.058c-0.275-0.02-0.54-0.087-0.776-0.23
					c-0.182-0.11-0.358-0.235-0.523-0.369c-0.339-0.276-0.67-0.563-1.004-0.846c-0.081-0.069-0.161-0.139-0.266-0.149
					c-0.08,0.06-0.069,0.134-0.037,0.19c0.061,0.109,0.124,0.223,0.21,0.311c0.401,0.412,0.831,0.791,1.316,1.103
					c0.072,0.046,0.142,0.096,0.214,0.144c-0.036,0.073-0.09,0.048-0.127,0.036c-0.138-0.045-0.277-0.092-0.409-0.152
					c-0.418-0.19-0.792-0.453-1.161-0.723c-0.07-0.051-0.145-0.096-0.219-0.14c-0.012-0.007-0.043,0.002-0.052,0.013
					c-0.015,0.021-0.033,0.054-0.027,0.076c0.01,0.035,0.033,0.071,0.06,0.096c0.085,0.079,0.173,0.156,0.263,0.231
					c0.246,0.206,0.494,0.409,0.74,0.615c0.051,0.043,0.098,0.091,0.151,0.14c-0.094,0.055-0.163-0.003-0.225-0.037
					c-0.341-0.185-0.68-0.376-1.016-0.57c-0.109-0.063-0.216-0.133-0.314-0.212c-0.118-0.094-0.232-0.088-0.348-0.011
					c-0.047,0.031-0.085,0.076-0.139,0.126c0.038,0.052,0.063,0.104,0.103,0.139c0.146,0.128,0.299,0.249,0.445,0.377
					c0.05,0.044,0.094,0.098,0.128,0.155c0.046,0.076-0.002,0.172-0.087,0.17c-0.085-0.002-0.177-0.012-0.253-0.046
					c-0.221-0.1-0.437-0.211-0.653-0.323c-0.112-0.058-0.218-0.125-0.34-0.196c-0.035,0.033-0.086,0.059-0.097,0.097
					c-0.012,0.039,0.003,0.097,0.026,0.134c0.063,0.098,0.142,0.185,0.207,0.282c0.086,0.129,0.17,0.26,0.246,0.396
					c0.033,0.058,0.051,0.126,0.064,0.192c0.023,0.124-0.039,0.208-0.167,0.225c-0.126,0.017-0.25,0.005-0.374-0.034
					c-0.235-0.076-0.441-0.201-0.635-0.35c-0.116-0.088-0.226-0.185-0.34-0.275c-0.07-0.056-0.14-0.065-0.213,0.032
					c0.004,0.109,0.08,0.2,0.14,0.296c0.11,0.173,0.205,0.353,0.267,0.549c0.055,0.175-0.008,0.273-0.187,0.317
					c-0.242,0.06-0.44,0.007-0.594-0.196c-0.106-0.139-0.214-0.277-0.329-0.409c-0.094-0.108-0.187-0.225-0.358-0.251
					c-0.027,0.051-0.056,0.099-0.08,0.15c-0.106,0.219-0.207,0.439-0.317,0.656c-0.039,0.077-0.092,0.149-0.15,0.214
					c-0.078,0.087-0.108,0.092-0.287,0.099c-0.068-0.087-0.03-0.184-0.021-0.277c0.045-0.445,0.098-0.889,0.086-1.338
					c-0.01-0.391-0.059-0.775-0.173-1.15c-0.022-0.074-0.046-0.149-0.073-0.221c-0.141-0.381-0.4-0.636-0.795-0.748
					c-0.368-0.104-0.738-0.167-1.122-0.097c-0.223,0.04-0.432,0.113-0.628,0.223c-0.11,0.062-0.219,0.125-0.345,0.198
					c-0.029-0.053-0.065-0.097-0.079-0.146c-0.123-0.44-0.245-0.88-0.363-1.321c-0.066-0.249-0.058-0.499,0.007-0.749
					c0.076-0.291,0.143-0.585,0.212-0.878c0.017-0.075,0.027-0.153,0.037-0.23c0.031-0.246-0.033-0.457-0.213-0.638
					c-0.178-0.179-0.343-0.371-0.51-0.561c-0.057-0.065-0.114-0.134-0.153-0.211c-0.064-0.125-0.026-0.231,0.098-0.291
					c0.078-0.037,0.163-0.063,0.246-0.09c0.981-0.319,1.93-0.718,2.855-1.173c0.358-0.176,0.705-0.371,1.022-0.616
					c0.037-0.028,0.081-0.048,0.14-0.082c0.043,0.112,0.079,0.211,0.118,0.309c0.096,0.244,0.188,0.49,0.291,0.73
					c0.054,0.124,0.122,0.243,0.197,0.356c0.145,0.219,0.193,0.233,0.456,0.173c0.028-0.007,0.057-0.013,0.086-0.017
					c0.221-0.03,0.311,0.037,0.333,0.254c0.016,0.155,0.03,0.31,0.033,0.465c0.004,0.205,0.078,0.375,0.216,0.525
					c0.415,0.451,0.818,0.913,1.241,1.355c0.725,0.759,1.458,1.511,2.23,2.224c0.686,0.633,1.389,1.247,2.134,1.811
					C36.72,37.9,36.76,37.938,36.801,37.973z"/>
			</g>
			<g>
				<path fill="#FFFFFF" d="M24.559,30.184c-0.034-0.07-0.071-0.126-0.09-0.189c-0.222-0.747-0.216-1.477,0.19-2.169
					c0.228-0.39,0.389-0.802,0.466-1.248c0.068-0.394,0.197-0.771,0.335-1.145c0.108-0.292,0.22-0.582,0.337-0.869
					c0.051-0.125,0.115-0.247,0.182-0.364c0.076-0.133,0.199-0.211,0.348-0.243c0.043-0.009,0.091,0.005,0.157,0.01
					c-0.016,0.074-0.026,0.128-0.039,0.181c-0.045,0.186,0.024,0.323,0.178,0.423c0.149,0.096,0.312,0.161,0.486,0.188
					c0.249,0.039,0.5,0.07,0.75,0.103c0.262,0.034,0.338,0.128,0.3,0.384c-0.017,0.115-0.042,0.229-0.064,0.344
					c-0.041,0.222-0.042,0.445-0.02,0.668c0.042,0.429,0.242,0.774,0.578,1.04c0.067,0.053,0.15,0.089,0.229,0.122
					c0.127,0.053,0.164,0.162,0.103,0.287c-0.038,0.078-0.092,0.148-0.146,0.217c-0.287,0.363-0.635,0.655-1.033,0.889
					c-0.529,0.31-1.083,0.57-1.653,0.796c-0.478,0.19-0.965,0.358-1.448,0.535C24.663,30.16,24.616,30.169,24.559,30.184z"/>
			</g>
			<g>
				<path fill="#FFFFFF" d="M24.019,28.372c-0.052,0-0.104,0.015-0.142-0.003c-0.105-0.049-0.215-0.097-0.303-0.171
					c-0.309-0.258-0.675-0.378-1.059-0.458c-0.142-0.03-0.289-0.039-0.432-0.065c-0.095-0.017-0.198-0.028-0.278-0.075
					c-0.665-0.39-1.105-0.942-1.205-1.726c-0.079-0.624,0.03-1.219,0.293-1.788c0.024-0.053,0.051-0.105,0.076-0.157
					c0.175-0.362,0.148-0.715-0.054-1.058c-0.156-0.265-0.374-0.471-0.625-0.643c-0.469-0.321-0.977-0.56-1.515-0.738
					c-0.426-0.141-0.865-0.225-1.308-0.288c-0.5-0.071-1.001-0.14-1.503-0.199c-0.347-0.041-0.697-0.063-1.045-0.096
					c-0.959-0.091-1.921-0.12-2.883-0.147c-0.33-0.009-0.661-0.023-0.991-0.028c-1.128-0.02-2.254-0.089-3.377-0.188
					c-0.774-0.068-1.54-0.212-2.29-0.425c-0.045-0.013-0.089-0.031-0.151-0.052c0.052-0.058,0.11-0.039,0.158-0.036
					c0.437,0.025,0.873,0.05,1.31,0.081c0.659,0.046,1.318,0.098,1.977,0.146c0.756,0.055,1.512,0.108,2.269,0.161
					c0.33,0.023,0.66,0.042,0.989,0.067c0.96,0.073,1.921,0.117,2.883,0.136c0.68,0.013,1.357,0.097,2.03,0.195
					c0.548,0.08,1.095,0.169,1.629,0.32c0.554,0.157,1.088,0.361,1.585,0.655c0.285,0.169,0.557,0.356,0.788,0.597
					c0.171,0.179,0.297,0.384,0.374,0.619c0.107,0.328,0.088,0.651-0.046,0.968c-0.136,0.323-0.253,0.653-0.309,1
					c-0.065,0.406-0.082,0.813,0.024,1.215c0.119,0.449,0.372,0.809,0.747,1.081c0.175,0.127,0.366,0.207,0.587,0.237
					c0.405,0.054,0.804,0.145,1.177,0.32c0.157,0.074,0.307,0.166,0.452,0.263C23.94,28.152,24.021,28.228,24.019,28.372z"/>
			</g>
			<g>
				<path fill="#FFFFFF" d="M49.341,20.088c-0.311,0.153-0.642,0.219-0.972,0.287c-0.629,0.128-1.267,0.198-1.907,0.249
					c-0.814,0.066-1.63,0.095-2.446,0.12c-1.02,0.032-2.04,0.069-3.06,0.117c-1.127,0.053-2.249,0.154-3.366,0.317
					c-0.471,0.069-0.943,0.127-1.405,0.25c-0.49,0.131-0.961,0.31-1.41,0.546c-0.32,0.168-0.618,0.367-0.872,0.627
					c-0.123,0.126-0.227,0.265-0.303,0.425c-0.15,0.319-0.16,0.638,0.006,0.953c0.152,0.285,0.263,0.584,0.327,0.901
					c0.076,0.374,0.111,0.748,0.037,1.128c-0.139,0.712-0.534,1.238-1.147,1.611c-0.119,0.073-0.252,0.093-0.387,0.116
					c-0.249,0.041-0.496,0.091-0.741,0.15c-0.249,0.06-0.472,0.178-0.666,0.347c-0.103,0.09-0.212,0.173-0.351,0.196
					c-0.031,0.005-0.074-0.014-0.098-0.036c-0.014-0.013-0.014-0.063,0-0.081c0.053-0.068,0.103-0.146,0.174-0.191
					c0.154-0.099,0.315-0.193,0.483-0.267c0.358-0.156,0.736-0.248,1.124-0.294c0.189-0.023,0.355-0.085,0.512-0.192
					c0.495-0.336,0.777-0.798,0.867-1.39c0.056-0.373,0.036-0.737-0.065-1.097c-0.076-0.271-0.153-0.543-0.256-0.804
					c-0.25-0.633-0.114-1.179,0.34-1.664c0.174-0.186,0.378-0.334,0.593-0.469c0.666-0.419,1.391-0.691,2.156-0.857
					c1.229-0.267,2.471-0.409,3.73-0.42c0.544-0.005,1.087-0.054,1.63-0.085c0.349-0.02,0.698-0.045,1.048-0.069
					c0.776-0.053,1.551-0.107,2.327-0.159c0.34-0.023,0.679-0.042,1.018-0.066c0.941-0.065,1.881-0.132,2.822-0.197
					C49.168,20.083,49.255,20.088,49.341,20.088z"/>
			</g>
			<g>
				<path fill="#FFFFFF" d="M28.403,41.868c0.051,0.061,0.085,0.145,0.136,0.157c0.149,0.035,0.191,0.147,0.236,0.264
					c-0.232,0.02-0.246,0.007-0.355-0.18c-0.037-0.063-0.105-0.109-0.163-0.156c-0.184-0.149-0.185-0.306,0-0.454
					c0.083-0.067,0.16-0.143,0.251-0.196c0.129-0.075,0.268-0.132,0.402-0.195c-0.146-0.089-0.184-0.079-0.524,0.143
					c-0.003-0.164,0.07-0.275,0.218-0.32c0.046-0.014,0.096-0.023,0.143-0.018c0.247,0.024,0.48-0.021,0.718-0.143
					c0.023,0.056,0.043,0.096,0.056,0.139c0.018,0.055,0.022,0.116,0.048,0.166c0.042,0.081,0.173,0.09,0.223,0.015
					c0.053-0.078,0.092-0.166,0.136-0.245c0.078,0.001,0.072,0.064,0.095,0.098c0.08,0.121,0.15,0.249,0.235,0.366
					c0.065,0.088,0.158,0.142,0.276,0.135c0.04-0.002,0.053-0.012,0.124-0.123c-0.146-0.147-0.428-0.154-0.485-0.435
					c0.046,0.003,0.094-0.009,0.11,0.008c0.123,0.131,0.27,0.217,0.443,0.264c0.044,0.012,0.086,0.045,0.122,0.076
					c0.078,0.069,0.094,0.17,0.05,0.265c-0.08,0.173-0.284,0.26-0.464,0.195c-0.045-0.016-0.09-0.037-0.129-0.065
					c-0.312-0.22-0.651-0.285-1.023-0.193c-0.122,0.03-0.25,0.038-0.372,0.067C28.703,41.554,28.576,41.647,28.403,41.868z"/>
			</g>
			<g>
				<path fill="#FFFFFF" d="M29.583,29.433c0.043-0.09,0.065-0.167,0.111-0.226c0.135-0.176,0.448-0.165,0.547,0.025
					c0.224,0.43,0.428,0.87,0.476,1.362c0.022,0.231-0.084,0.376-0.304,0.41c-0.174,0.026-0.281-0.029-0.336-0.201
					c-0.041-0.128-0.061-0.264-0.083-0.397c-0.014-0.086-0.016-0.174-0.018-0.261c-0.004-0.193-0.07-0.358-0.209-0.494
					C29.705,29.592,29.655,29.52,29.583,29.433z"/>
			</g>
			<g>
				<path fill="#FFFFFF" d="M24.235,36.625c-0.066-0.23-0.099-0.426-0.003-0.628c0.025-0.008,0.054-0.028,0.079-0.024
					c0.531,0.072,1.034,0.235,1.508,0.464c0.057,0.125,0.044,0.242,0.027,0.355c-0.025,0.157-0.134,0.231-0.29,0.214
					c-0.019-0.002-0.039-0.004-0.057-0.009C25.081,36.874,24.665,36.752,24.235,36.625z"/>
			</g>
			<g>
				<path fill="#FFFFFF" d="M27.025,39.698c-0.041-0.393,0.047-0.715,0.049-1.04c0.002-0.329,0-0.658,0-0.997
					c0.114-0.072,0.217-0.144,0.326-0.204c0.188-0.103,0.373-0.001,0.388,0.219c0.01,0.135,0.007,0.272-0.008,0.406
					c-0.016,0.144-0.047,0.286-0.083,0.427c-0.039,0.154-0.114,0.295-0.252,0.378c-0.115,0.069-0.139,0.177-0.174,0.288
					c-0.04,0.129-0.086,0.256-0.135,0.381C27.124,39.589,27.092,39.615,27.025,39.698z"/>
			</g>
			<g>
				<path fill="#FFFFFF" d="M30.168,40.568c-0.094,0.027-0.187,0.053-0.285,0.081c-0.048,0.081-0.096,0.162-0.158,0.266
					c-0.037-0.055-0.068-0.088-0.083-0.127c-0.028-0.07-0.046-0.144-0.07-0.22c-0.146-0.008-0.252,0.069-0.37,0.103
					c-0.061,0.018-0.114,0.012-0.148-0.052c-0.03-0.058-0.026-0.118,0.019-0.16c0.048-0.046,0.106-0.084,0.166-0.113
					c0.087-0.042,0.179-0.074,0.269-0.107c0.203-0.074,0.34-0.213,0.421-0.413c0.032-0.079,0.08-0.152,0.128-0.223
					c0.011-0.016,0.054-0.023,0.076-0.015c0.021,0.008,0.045,0.038,0.048,0.061c0.007,0.047,0.002,0.096,0,0.144
					c-0.003,0.087-0.013,0.174-0.01,0.261c0.005,0.183,0.072,0.337,0.215,0.457c0.096,0.081,0.19,0.165,0.278,0.254
					c0.053,0.053,0.094,0.118,0.135,0.171c-0.027,0.074-0.072,0.089-0.118,0.056c-0.07-0.05-0.137-0.107-0.196-0.17
					C30.392,40.723,30.296,40.631,30.168,40.568z"/>
			</g>
			<g>
				<path fill="#FFFFFF" d="M26.365,38.047c0.17-0.108,0.306-0.216,0.458-0.275c0.074,0.027,0.064,0.08,0.065,0.126
					c0.006,0.436,0.008,0.871-0.048,1.304c-0.029,0.219-0.063,0.438-0.201,0.623c-0.025-0.017-0.051-0.025-0.053-0.037
					C26.497,39.216,26.433,38.641,26.365,38.047z"/>
			</g>
			<g>
				<path fill="#FFFFFF" d="M26.278,23.678c0.021-0.021,0.032-0.043,0.048-0.046c0.276-0.061,0.482-0.235,0.69-0.413
					c0.198-0.17,0.406-0.33,0.619-0.481c0.167-0.118,0.355-0.2,0.555-0.247c0.19-0.044,0.368-0.024,0.504,0.137
					c0.022,0.027,0.031,0.064,0.058,0.121c-0.077,0.008-0.131,0.019-0.185,0.019c-0.501,0.001-0.923,0.192-1.284,0.531
					c-0.142,0.133-0.283,0.265-0.429,0.393c-0.097,0.085-0.21,0.139-0.342,0.145C26.393,23.843,26.315,23.789,26.278,23.678z"/>
			</g>
			<g>
				<path fill="#FFFFFF" d="M27.616,23.465c0.004,0.111,0.017,0.197,0.007,0.281c-0.006,0.052-0.038,0.108-0.075,0.147
					c-0.251,0.269-0.252,0.31,0.008,0.556c0.007,0.007,0.011,0.016,0.017,0.024c-0.009,0.067-0.064,0.062-0.108,0.065
					c-0.155,0.011-0.309,0.01-0.452-0.067c-0.236-0.127-0.278-0.346-0.105-0.553C27.033,23.767,27.327,23.575,27.616,23.465z"/>
			</g>
			<g>
				<path fill="#FFFFFF" d="M23.98,21.119c0.079-0.068,0.176-0.081,0.265-0.11c0.094-0.031,0.179-0.074,0.235-0.162
					c0.047-0.074,0.024-0.161-0.06-0.189c-0.054-0.018-0.114-0.019-0.17-0.033c-0.055-0.013-0.115-0.023-0.161-0.052
					c-0.106-0.067-0.198-0.16-0.309-0.216c-0.11-0.056-0.237-0.078-0.352-0.114c-0.041-0.085,0.021-0.119,0.069-0.137
					c0.159-0.06,0.319-0.044,0.423,0.096c0.132,0.178,0.303,0.258,0.512,0.301c0.091,0.019,0.181,0.071,0.259,0.126
					c0.104,0.072,0.106,0.184,0.013,0.273c-0.137,0.133-0.308,0.201-0.492,0.236c-0.057,0.011-0.116,0.01-0.174,0.011
					C24.022,21.149,24.006,21.134,23.98,21.119z"/>
			</g>
			<g>
				<path fill="#FFFFFF" d="M27.92,23.463c0.106,0.06,0.181,0.1,0.253,0.146c0.031,0.02,0.054,0.05,0.079,0.074
					c-0.127,0.263-0.199,0.331-0.46,0.429C27.778,23.892,27.862,23.7,27.92,23.463z"/>
			</g>
			<g>
				<path fill="#FFFFFF" d="M23.353,20.373c0.29,0.095,0.506,0.23,0.74,0.374c-0.1,0.094-0.195,0.096-0.296,0.056
					C23.607,20.728,23.424,20.643,23.353,20.373z"/>
			</g>
			<g>
				<path fill="#FFFFFF" d="M30.446,42.282c0-0.106,0.002-0.21-0.001-0.313c-0.002-0.08,0.044-0.125,0.109-0.149
					c0.097-0.037,0.197,0.038,0.193,0.141C30.741,42.131,30.665,42.214,30.446,42.282z"/>
			</g>
			<g>
				<path fill="#FFFFFF" d="M28.148,23.001c0.019,0.037,0.032,0.052,0.036,0.069c0.036,0.15,0.059,0.169,0.188,0.133
					c0.083-0.023,0.163-0.053,0.239-0.078c0.051,0.039,0.037,0.074,0.008,0.102c-0.08,0.079-0.184,0.105-0.29,0.119
					c-0.081,0.011-0.152-0.024-0.21-0.08C28.049,23.2,28.054,23.133,28.148,23.001z"/>
			</g>
		</g>
	</g>
</g>
</svg>
