<?xml version="1.0" encoding="utf-8"?>
<!-- Generator: Adobe Illustrator 18.0.0, SVG Export Plug-In . SVG Version: 6.00 Build 0)  -->
<!DOCTYPE svg PUBLIC "-//W3C//DTD SVG 1.1//EN" "http://www.w3.org/Graphics/SVG/1.1/DTD/svg11.dtd">
<svg version="1.1" xmlns="http://www.w3.org/2000/svg" xmlns:xlink="http://www.w3.org/1999/xlink" x="0px" y="0px"
	 viewBox="0 0 54 54" enable-background="new 0 0 54 54" xml:space="preserve">
<g id="_x31_170px_grid">
</g>
<g id="Layer_3">
</g>
<g id="Layer_2">
</g>
<g id="SVG">
</g>
<g id="Layer_4">
	<g>
		<circle opacity="0.75" fill="#0055FF" cx="27" cy="27" r="25"/>
		<g>
			<path fill="#FFFFFF" d="M26.751,6.587L26.751,6.587h0.03c2.767,0.004,5.452,0.552,7.98,1.628c2.443,1.04,4.638,2.528,6.524,4.421
				c1.886,1.893,3.365,4.095,4.397,6.544c1.068,2.535,1.607,5.225,1.602,7.996c-0.005,2.782-0.551,5.478-1.625,8.012
				c-1.037,2.448-2.521,4.646-4.409,6.533c-1.888,1.887-4.087,3.367-6.534,4.401c-2.533,1.069-5.226,1.612-8.004,1.612h-0.031
				c-2.775-0.004-5.466-0.552-7.999-1.627c-2.447-1.039-4.646-2.525-6.534-4.417c-1.888-1.891-3.37-4.091-4.404-6.539
				c-1.07-2.533-1.611-5.223-1.608-7.994c0.003-2.783,0.549-5.48,1.623-8.015c1.038-2.45,2.524-4.649,4.416-6.537
				c1.892-1.888,4.095-3.37,6.549-4.404C21.265,7.13,23.965,6.587,26.751,6.587 M26.751,4.58C14.253,4.58,4.143,14.665,4.13,27.155
				C4.118,39.601,14.223,49.723,26.679,49.741c0.011,0,0.022,0,0.034,0c12.467,0,22.558-10.078,22.579-22.561
				C49.313,14.737,39.215,4.597,26.784,4.58C26.773,4.58,26.763,4.58,26.751,4.58L26.751,4.58z"/>
			<g>
				<path fill="#FFFFFF" d="M40.075,37.071c-0.079-0.006-0.158-0.018-0.237-0.018c-0.852-0.001-1.703-0.006-2.555,0.003
					c-0.169,0.002-0.237-0.054-0.284-0.213c-0.54-1.825-1.087-3.648-1.632-5.471c-0.029-0.096-0.061-0.19-0.134-0.28
					c0,1.977,0,3.954,0,5.946c-1.072,0-2.115,0-3.174,0c0-6.561,0-13.115,0-19.702c0.078,0,0.155,0,0.232,0
					c0.779,0,1.558,0.007,2.336-0.005c0.201-0.003,0.285,0.05,0.343,0.251c0.63,2.154,1.272,4.305,1.91,6.456
					c0.008,0.026,0.018,0.052,0.074,0.076c0-2.25,0-4.5,0-6.764c1.053,0,2.069,0,3.11,0c0.005,0.075,0.013,0.152,0.013,0.229
					c0,6.427,0,12.854,0,19.281c0,0.073-0.007,0.145-0.01,0.218L40.075,37.071z"/>
			</g>
			<g>
				<path fill="#FFFFFF" d="M31.702,37.052c-0.423,0-0.836,0-1.25,0c-0.575,0-1.15-0.005-1.725,0.003
					c-0.149,0.002-0.198-0.051-0.221-0.194c-0.122-0.768-0.253-1.534-0.389-2.299c-0.011-0.062-0.091-0.161-0.14-0.162
					c-1.127-0.009-2.254-0.007-3.411-0.007c-0.15,0.884-0.299,1.761-0.449,2.647c-1.056,0-2.101,0-3.179,0
					c1.142-6.575,2.28-13.134,3.419-19.695c0.083-0.004,0.14-0.01,0.197-0.01c1.179,0,2.358,0.003,3.537-0.004
					c0.161-0.001,0.219,0.041,0.248,0.21c0.382,2.241,0.774,4.481,1.164,6.721c0.372,2.14,0.745,4.28,1.117,6.42
					c0.364,2.097,0.726,4.194,1.089,6.292C31.711,36.988,31.706,37.002,31.702,37.052z M26.36,27.366
					c-0.019-0.003-0.039-0.007-0.058-0.01c-0.284,1.366-0.569,2.733-0.856,4.115c0.597,0,1.168,0,1.766,0
					C26.926,30.091,26.643,28.728,26.36,27.366z"/>
			</g>
			<g>
				<path fill="#FFFFFF" d="M16.993,29.913c0,2.391,0,4.752,0,7.126c-1.031,0-2.032,0-3.053,0c0-6.557,0-13.116,0-19.703
					c0.077,0,0.155,0,0.232,0c2.118,0,4.236,0.007,6.353-0.005c0.63-0.003,1.07,0.266,1.364,0.804
					c0.296,0.541,0.439,1.131,0.443,1.738c0.015,2.307,0.016,4.614-0.001,6.921c-0.005,0.656-0.145,1.299-0.424,1.902
					c-0.37,0.8-0.954,1.249-1.877,1.223c-0.909-0.026-1.819-0.006-2.729-0.006C17.208,29.913,17.115,29.913,16.993,29.913z
					 M16.996,20.638c0,0.178,0,0.329,0,0.48c0,1.812,0.003,3.623-0.004,5.435c-0.001,0.196,0.058,0.25,0.247,0.244
					c0.392-0.013,0.786-0.002,1.178-0.005c0.392-0.003,0.594-0.172,0.654-0.557c0.027-0.172,0.043-0.347,0.044-0.521
					c0.004-1.346,0.004-2.692,0-4.038c0-0.174-0.017-0.349-0.048-0.52c-0.057-0.312-0.243-0.51-0.508-0.516
					C18.051,20.63,17.543,20.638,16.996,20.638z"/>
			</g>
		</g>
	</g>
</g>
</svg>
