<?xml version="1.0" encoding="utf-8"?>
<!-- Generator: Adobe Illustrator 18.0.0, SVG Export Plug-In . SVG Version: 6.00 Build 0)  -->
<!DOCTYPE svg PUBLIC "-//W3C//DTD SVG 1.1//EN" "http://www.w3.org/Graphics/SVG/1.1/DTD/svg11.dtd">
<svg version="1.1" xmlns="http://www.w3.org/2000/svg" xmlns:xlink="http://www.w3.org/1999/xlink" x="0px" y="0px"
	 viewBox="0 0 54 54" enable-background="new 0 0 54 54" xml:space="preserve">
<g id="_x31_170px_grid">
</g>
<g id="Layer_3">
</g>
<g id="Layer_2">
</g>
<g id="SVG">
</g>
<g id="Layer_4">
	<g>
		<circle opacity="0.75" fill="#1ABCA9" cx="27" cy="27" r="25"/>
		<g>
			<g>
				<path fill="#FFFFFF" d="M27.686,19.092c0.007,0.005,0.014,0.009,0.02,0.014c0.038-0.028,0.076-0.056,0.114-0.084
					c1.299-0.959,2.597-1.92,3.955-2.795c0.823-0.53,1.664-1.031,2.57-1.408c0.646-0.269,1.308-0.474,2.014-0.504
					c0.285-0.012,0.566,0.01,0.83,0.13c0.315,0.143,0.475,0.392,0.492,0.735c0.014,0.279-0.055,0.543-0.152,0.8
					c-0.201,0.533-0.501,1.012-0.823,1.477c-0.807,1.168-1.747,2.226-2.726,3.25c-1.775,1.858-3.679,3.578-5.634,5.242
					c-0.021,0.018-0.045,0.033-0.076,0.055c-0.016-0.046-0.026-0.08-0.04-0.112c-0.152-0.374-0.281-0.76-0.462-1.12
					c-0.724-1.438-1.826-2.47-3.346-3.035c-1.052-0.391-2.143-0.487-3.251-0.36c-1.599,0.183-3.083,0.706-4.448,1.561
					c-1.134,0.71-2.106,1.607-2.997,2.597c-0.975,1.083-1.837,2.253-2.657,3.455c-0.012,0.018-0.021,0.038-0.032,0.057
					c0.008,0.007,0.016,0.014,0.023,0.02c0.038-0.045,0.072-0.094,0.114-0.136c0.82-0.809,1.675-1.578,2.597-2.271
					c0.936-0.703,1.919-1.324,3.015-1.75c0.947-0.368,1.922-0.56,2.942-0.438c0.817,0.098,1.564,0.376,2.221,0.877
					c0.653,0.498,1.122,1.142,1.47,1.878c0.394,0.834,0.607,1.718,0.733,2.627c0.052,0.372,0.126,0.739,0.286,1.082
					c0.127,0.272,0.298,0.508,0.561,0.665c0.322,0.193,0.672,0.203,1.028,0.14c0.451-0.08,0.861-0.269,1.261-0.483
					c1.734-0.926,3.349-2.032,4.893-3.244c1.315-1.033,2.569-2.137,3.811-3.256c0.979-0.883,1.928-1.796,2.783-2.802
					c1.23-1.447,2.305-2.997,3.139-4.708c0.445-0.914,0.813-1.858,1-2.863c0.098-0.529,0.14-1.061,0.046-1.596
					c-0.108-0.612-0.419-1.075-0.975-1.372c-0.51-0.272-1.054-0.396-1.627-0.416c-0.66-0.023-1.304,0.078-1.94,0.245
					c-1.191,0.312-2.301,0.817-3.371,1.414c-1.83,1.021-3.495,2.268-5.018,3.705c-0.743,0.701-1.437,1.448-2.037,2.277
					C27.887,18.793,27.788,18.943,27.686,19.092z"/>
			</g>
			<g>
				<path fill="#FFFFFF" d="M35.969,37.375c-0.044,0.053-0.074,0.092-0.106,0.129c-0.949,1.082-1.898,2.163-2.846,3.246
					c-0.032,0.036-0.054,0.095-0.054,0.143c-0.004,0.47-0.001,0.94-0.003,1.409c0,0.079,0.024,0.108,0.107,0.108
					c1.701-0.002,3.401-0.002,5.102,0c0.085,0,0.107-0.032,0.106-0.109c-0.003-0.22-0.001-0.44-0.001-0.66
					c0-0.241-0.002-0.482,0.001-0.722c0.001-0.077-0.027-0.11-0.105-0.104c-0.032,0.003-0.065,0-0.098,0c-0.889,0-1.778,0-2.667,0
					c-0.039,0-0.079-0.006-0.139-0.011c0.04-0.048,0.066-0.08,0.093-0.11c0.951-1.084,1.902-2.168,2.85-3.254
					c0.035-0.041,0.061-0.104,0.062-0.157c0.005-0.467,0.001-0.934,0.004-1.4c0.001-0.085-0.027-0.112-0.113-0.112
					c-1.698,0.002-3.395,0.002-5.093,0c-0.089,0-0.111,0.033-0.11,0.115c0.003,0.279,0,0.559,0.002,0.838
					c0,0.059,0.005,0.12,0.019,0.177c0.07,0.286,0.305,0.464,0.618,0.465c0.743,0.002,1.487,0,2.23,0.001
					C35.869,37.366,35.909,37.371,35.969,37.375z"/>
			</g>
			<g>
				<path fill="#FFFFFF" d="M26.955,40.076c0,0.211,0,0.422,0,0.633c0,0.532,0.001,1.064-0.001,1.597
					c0,0.065,0.006,0.105,0.089,0.104c0.464-0.003,0.928-0.003,1.392-0.001c0.068,0,0.091-0.027,0.087-0.09
					c-0.002-0.033,0-0.065,0-0.098c0-1.401,0.002-2.801-0.002-4.202c-0.001-0.268,0.107-0.47,0.309-0.631
					c0.441-0.351,1.172-0.365,1.63-0.033c0.234,0.17,0.355,0.39,0.354,0.689c-0.007,1.237-0.003,2.474-0.002,3.711
					c0,0.39,0.261,0.651,0.648,0.652c0.265,0.001,0.529,0,0.794,0c0.125,0,0.126,0,0.126-0.129c0-1.433,0-2.867,0-4.3
					c0-0.602-0.21-1.123-0.615-1.564c-0.836-0.909-2.251-1.167-3.38-0.599c-0.929,0.467-1.442,1.209-1.429,2.279
					C26.962,38.755,26.955,39.415,26.955,40.076z"/>
			</g>
			<g>
				<path fill="#FFFFFF" d="M16.948,38.116c0,1.388,0,2.777,0,4.165c0,0.127,0,0.128,0.128,0.128c0.437,0,0.874,0,1.311,0
					c0.128,0,0.129,0,0.129-0.125c0-2.601,0-5.203,0-7.804c0-0.408-0.255-0.664-0.661-0.666c-0.253-0.002-0.505,0-0.758,0
					c-0.148,0-0.148,0-0.148,0.147C16.948,35.345,16.948,36.73,16.948,38.116z"/>
			</g>
			<g>
				<path fill="#FFFFFF" d="M19.299,39.108c0,1.053,0,2.105,0,3.158c0,0.142,0,0.143,0.138,0.143c0.422,0,0.844,0.001,1.267,0
					c0.155,0,0.16,0.03,0.16-0.159c0-1.909,0-3.818,0-5.727c0-0.036,0.001-0.071-0.001-0.107c-0.017-0.362-0.272-0.609-0.634-0.611
					c-0.265-0.001-0.529,0-0.794,0c-0.136,0-0.137,0-0.137,0.137C19.299,36.997,19.299,38.053,19.299,39.108z"/>
			</g>
			<g>
				<path fill="#FFFFFF" d="M35.473,33.264L35.473,33.264c0,0.22,0,0.44,0,0.66c0.002,0.362,0.177,0.618,0.496,0.771
					c0.609,0.293,1.416-0.09,1.372-0.852c-0.022-0.385-0.004-0.773-0.004-1.16c0-0.252,0-0.252-0.255-0.251
					c-0.217,0-0.282,0.064-0.282,0.282c0,0.398-0.002,0.797,0,1.195c0.001,0.143-0.064,0.237-0.189,0.295
					c-0.314,0.144-0.599-0.032-0.599-0.37c0-0.431-0.001-0.862,0.001-1.293c0-0.078-0.021-0.115-0.106-0.109
					c-0.107,0.007-0.214,0.007-0.321,0c-0.094-0.007-0.117,0.034-0.115,0.119C35.476,32.788,35.473,33.026,35.473,33.264z"/>
			</g>
			<g>
				<path fill="#FFFFFF" d="M33.204,33.962c0,0.235,0,0.47,0,0.704c0,0.125,0.001,0.126,0.122,0.127c0.095,0.001,0.19,0,0.285,0
					c0.127-0.001,0.129-0.002,0.129-0.129c0.001-0.449,0-0.897,0.001-1.346c0-0.156,0.067-0.25,0.212-0.305
					c0.115-0.044,0.233-0.045,0.349-0.006c0.156,0.052,0.225,0.147,0.226,0.313c0.001,0.38,0,0.761,0.001,1.141
					c0,0.039-0.001,0.077,0.002,0.116c0.009,0.139,0.083,0.212,0.221,0.216c0.074,0.002,0.149-0.002,0.223,0.001
					c0.07,0.004,0.094-0.025,0.094-0.094c-0.002-0.475,0.003-0.951-0.003-1.427c-0.004-0.327-0.168-0.562-0.448-0.72
					c-0.173-0.097-0.362-0.132-0.559-0.118c-0.418,0.028-0.872,0.338-0.856,0.894C33.209,33.54,33.204,33.751,33.204,33.962z"/>
			</g>
			<g>
				<path fill="#FFFFFF" d="M41.983,32.433c-0.166,0-0.314,0.004-0.461-0.002c-0.078-0.003-0.115,0.025-0.141,0.099
					c-0.159,0.451-0.323,0.901-0.486,1.351c-0.011,0.029-0.023,0.058-0.044,0.109c-0.023-0.056-0.036-0.087-0.048-0.119
					c-0.162-0.447-0.322-0.895-0.485-1.341c-0.013-0.035-0.044-0.089-0.068-0.09c-0.171-0.008-0.343-0.004-0.526-0.004
					c0.009,0.037,0.012,0.063,0.021,0.087c0.264,0.733,0.529,1.465,0.792,2.198c0.019,0.053,0.048,0.075,0.104,0.074
					c0.128-0.003,0.256-0.005,0.383,0.001c0.084,0.004,0.125-0.024,0.154-0.106c0.253-0.714,0.511-1.427,0.768-2.14
					C41.957,32.519,41.966,32.488,41.983,32.433z"/>
			</g>
			<g>
				<path fill="#FFFFFF" d="M20.085,35.204c0.229,0,0.457-0.002,0.686,0.001c0.069,0.001,0.095-0.026,0.094-0.094
					c-0.002-0.226,0.004-0.452-0.002-0.677c-0.011-0.364-0.27-0.615-0.635-0.62c-0.276-0.004-0.552,0.001-0.829-0.002
					c-0.079-0.001-0.102,0.028-0.101,0.104c0.003,0.395,0.004,0.79,0,1.185c-0.001,0.086,0.033,0.105,0.11,0.104
					C19.633,35.201,19.859,35.204,20.085,35.204z"/>
			</g>
			<g>
				<path fill="#FFFFFF" d="M43.981,38.775h0.011c0-0.464-0.001-0.928,0-1.392c0-0.253-0.056-0.492-0.189-0.706
					c-0.39-0.629-0.956-1.015-1.684-1.131c-0.299-0.048-0.611-0.024-0.917-0.024c-0.841-0.001-1.488,0.376-1.978,1.042
					c-0.153,0.208-0.253,0.443-0.29,0.702c-0.008,0.059-0.003,0.097,0.072,0.097c0.464-0.002,0.928,0,1.392-0.003
					c0.027,0,0.066-0.021,0.077-0.043c0.1-0.195,0.27-0.297,0.471-0.354c0.34-0.098,0.684-0.101,1.019,0.013
					c0.128,0.043,0.257,0.119,0.353,0.213c0.257,0.253,0.198,0.662-0.111,0.847c-0.076,0.045-0.158,0.09-0.243,0.108
					c-0.392,0.083-0.785,0.163-1.18,0.233c-0.429,0.076-0.851,0.171-1.233,0.395c-0.427,0.25-0.722,0.606-0.807,1.099
					c-0.042,0.247-0.048,0.503-0.042,0.754c0.026,1.004,0.619,1.713,1.605,1.899c0.517,0.098,1.044,0.086,1.563,0.005
					c1.172-0.183,2.04-1.135,2.105-2.319C44.003,39.733,43.981,39.253,43.981,38.775z M42.459,39.045
					c0.008,0.025,0.015,0.036,0.015,0.047c-0.001,0.324,0.009,0.649-0.008,0.972c-0.021,0.379-0.214,0.67-0.529,0.874
					c-0.352,0.226-0.736,0.311-1.151,0.226c-0.063-0.013-0.126-0.035-0.186-0.062c-0.186-0.084-0.302-0.223-0.331-0.431
					c-0.037-0.263-0.054-0.523,0.095-0.761c0.111-0.177,0.278-0.286,0.471-0.349c0.194-0.064,0.394-0.114,0.593-0.159
					C41.781,39.319,42.143,39.267,42.459,39.045z"/>
			</g>
			<g>
				<path fill="#FFFFFF" d="M16.373,38.719c0-0.449-0.001-0.898,0-1.347c0.001-0.241-0.053-0.468-0.176-0.673
					c-0.388-0.645-0.96-1.034-1.697-1.153c-0.299-0.049-0.611-0.024-0.917-0.024c-0.841,0-1.488,0.377-1.977,1.043
					c-0.155,0.211-0.257,0.448-0.289,0.712c-0.008,0.062,0.011,0.087,0.075,0.087c0.461-0.001,0.922,0,1.383-0.003
					c0.029,0,0.072-0.022,0.084-0.046c0.099-0.188,0.262-0.289,0.455-0.347c0.345-0.103,0.693-0.102,1.036,0.007
					c0.103,0.033,0.201,0.09,0.289,0.153c0.256,0.182,0.355,0.697-0.076,0.923c-0.071,0.037-0.144,0.078-0.221,0.094
					c-0.389,0.082-0.779,0.161-1.171,0.231c-0.403,0.072-0.799,0.158-1.163,0.354c-0.437,0.235-0.757,0.572-0.866,1.066
					c-0.109,0.495-0.107,0.996,0.054,1.48c0.244,0.73,0.791,1.111,1.521,1.257c0.376,0.075,0.759,0.048,1.139,0.039
					c1.444-0.035,2.512-1.132,2.514-2.576C16.373,39.569,16.373,39.144,16.373,38.719z M14.837,39.047
					c0.011,0.017,0.016,0.022,0.016,0.027c-0.001,0.342,0.013,0.685-0.009,1.025c-0.023,0.357-0.215,0.633-0.511,0.828
					c-0.358,0.236-0.751,0.326-1.174,0.232c-0.097-0.021-0.19-0.068-0.277-0.117c-0.101-0.057-0.184-0.146-0.201-0.261
					c-0.027-0.184-0.052-0.372-0.041-0.556c0.016-0.269,0.166-0.478,0.41-0.585c0.221-0.097,0.46-0.156,0.692-0.226
					c0.094-0.028,0.192-0.041,0.288-0.061C14.313,39.291,14.593,39.222,14.837,39.047z"/>
			</g>
			<g>
				<path fill="#FFFFFF" d="M26.524,38.715L26.524,38.715c0.001-0.443-0.001-0.886,0.001-1.329c0.001-0.253-0.055-0.492-0.187-0.706
					c-0.389-0.631-0.954-1.018-1.682-1.133c-0.32-0.05-0.653-0.033-0.979-0.023c-0.92,0.029-1.596,0.471-2.045,1.262
					c-0.083,0.146-0.11,0.324-0.159,0.488c-0.02,0.066,0.012,0.09,0.079,0.09c0.455-0.001,0.91,0,1.365-0.003
					c0.032,0,0.08-0.02,0.094-0.045c0.099-0.188,0.262-0.29,0.455-0.348c0.345-0.103,0.694-0.103,1.036,0.007
					c0.108,0.035,0.212,0.095,0.303,0.164c0.242,0.182,0.337,0.682-0.081,0.907c-0.073,0.039-0.149,0.081-0.228,0.098
					c-0.389,0.082-0.779,0.162-1.171,0.231c-0.43,0.076-0.852,0.17-1.233,0.393c-0.44,0.257-0.738,0.623-0.816,1.132
					c-0.04,0.262-0.041,0.534-0.029,0.8c0.042,0.938,0.623,1.619,1.541,1.815c0.47,0.101,0.947,0.07,1.422,0.042
					c0.302-0.018,0.594-0.096,0.866-0.229c0.934-0.46,1.398-1.231,1.446-2.256C26.541,39.62,26.524,39.167,26.524,38.715z
					 M24.99,39.048c0.011,0.015,0.017,0.02,0.017,0.025c-0.002,0.344,0.013,0.69-0.01,1.033c-0.024,0.354-0.215,0.626-0.508,0.819
					c-0.36,0.238-0.756,0.329-1.181,0.232c-0.11-0.025-0.215-0.084-0.311-0.146c-0.059-0.038-0.117-0.103-0.139-0.168
					c-0.166-0.495-0.119-1.042,0.466-1.264c0.212-0.081,0.438-0.131,0.66-0.183C24.33,39.315,24.685,39.263,24.99,39.048z"/>
			</g>
			<g>
				<path fill="#FFFFFF" d="M38.907,33.786L38.907,33.786c0.199-0.001,0.398-0.002,0.597,0c0.066,0.001,0.105-0.02,0.095-0.092
					c-0.03-0.208-0.039-0.423-0.099-0.622c-0.117-0.391-0.437-0.624-0.823-0.638c-0.437-0.015-0.768,0.181-0.924,0.575
					c-0.16,0.402-0.163,0.814-0.004,1.218c0.122,0.312,0.356,0.5,0.691,0.548c0.114,0.016,0.231,0.019,0.346,0.011
					c0.351-0.025,0.648-0.262,0.757-0.59c0.017-0.053,0.006-0.076-0.05-0.085c-0.126-0.021-0.252-0.042-0.377-0.069
					c-0.07-0.015-0.104,0.002-0.133,0.072c-0.103,0.252-0.386,0.313-0.593,0.135c-0.11-0.095-0.157-0.22-0.177-0.36
					c-0.011-0.077,0.016-0.107,0.096-0.106C38.509,33.788,38.708,33.786,38.907,33.786z M38.628,33.418
					c-0.113,0-0.226,0.003-0.339-0.002c-0.024-0.001-0.067-0.03-0.067-0.046c-0.003-0.239,0.149-0.501,0.444-0.479
					c0.23,0.017,0.374,0.228,0.375,0.477c0,0.017-0.041,0.047-0.065,0.048C38.86,33.421,38.744,33.418,38.628,33.418z"/>
			</g>
			<g>
				<path fill="#FFFFFF" d="M43.928,33.506h0.012c0-0.122,0-0.244,0-0.365c0-0.373-0.298-0.688-0.671-0.705
					c-0.113-0.005-0.226-0.005-0.339,0c-0.289,0.014-0.597,0.253-0.67,0.512c-0.02,0.069-0.005,0.101,0.071,0.1
					c0.119-0.002,0.238,0.001,0.357-0.002c0.027-0.001,0.063-0.009,0.079-0.027c0.151-0.164,0.334-0.145,0.519-0.09
					c0.099,0.029,0.143,0.102,0.143,0.193c0,0.095-0.058,0.149-0.139,0.175c-0.087,0.029-0.178,0.045-0.267,0.067
					c-0.17,0.042-0.345,0.069-0.507,0.129c-0.186,0.069-0.307,0.213-0.337,0.416c-0.013,0.09-0.013,0.184-0.006,0.275
					c0.023,0.311,0.209,0.532,0.516,0.586c0.156,0.027,0.32,0.028,0.479,0.016c0.401-0.032,0.708-0.32,0.757-0.719
					C43.947,33.882,43.928,33.693,43.928,33.506z M43.436,33.627c-0.007,0.142,0.005,0.275-0.022,0.399
					c-0.052,0.238-0.4,0.382-0.617,0.27c-0.156-0.08-0.155-0.37,0.005-0.47c0.057-0.035,0.124-0.055,0.189-0.075
					c0.071-0.021,0.145-0.031,0.217-0.05C43.276,33.683,43.342,33.658,43.436,33.627z"/>
			</g>
		</g>
	</g>
</g>
</svg>
