<?xml version="1.0" encoding="utf-8"?>
<!-- Generator: Adobe Illustrator 18.0.0, SVG Export Plug-In . SVG Version: 6.00 Build 0)  -->
<!DOCTYPE svg PUBLIC "-//W3C//DTD SVG 1.1//EN" "http://www.w3.org/Graphics/SVG/1.1/DTD/svg11.dtd">
<svg version="1.1" xmlns="http://www.w3.org/2000/svg" xmlns:xlink="http://www.w3.org/1999/xlink" x="0px" y="0px"
	 viewBox="0 0 54 54" enable-background="new 0 0 54 54" xml:space="preserve">
<g id="_x31_170px_grid">
</g>
<g id="Layer_3">
</g>
<g id="Layer_2">
</g>
<g id="SVG">
</g>
<g id="Layer_4">
	<g>
		<circle opacity="0.75" fill="#FFD143" cx="27" cy="27" r="25"/>
		<g>
			<g>
				<path fill="#FFFFFF" d="M40.991,16.937c-0.015-0.046-0.022-0.076-0.034-0.104c-0.248-0.615-0.499-1.228-0.742-1.845
					c-0.045-0.113-0.102-0.092-0.184-0.059c-2.001,0.806-4.003,1.612-6.004,2.418c-0.077,0.031-0.153,0.065-0.241,0.103
					c0.274,0.69,0.543,1.366,0.819,2.057C36.738,18.648,38.858,17.795,40.991,16.937z"/>
			</g>
			<g>
				<path fill="#FFFFFF" d="M40.905,25.509c-0.057-0.027-0.092-0.044-0.128-0.06c-0.511-0.218-1.023-0.437-1.534-0.655
					c-1.518-0.647-3.036-1.294-4.554-1.944c-0.092-0.039-0.131-0.02-0.17,0.069c-0.24,0.55-0.486,1.099-0.729,1.648
					c-0.038,0.084-0.073,0.17-0.116,0.268c2.125,0.906,4.239,1.807,6.365,2.714C40.331,26.863,40.615,26.193,40.905,25.509z"/>
			</g>
			<g>
				<path fill="#FFFFFF" d="M39.403,22.199c0.112,0,0.159-0.027,0.158-0.148c-0.004-0.645-0.004-1.291,0-1.936
					c0-0.109-0.036-0.146-0.146-0.146c-1.527,0.003-3.054,0.003-4.581,0c-0.109,0-0.146,0.032-0.146,0.143
					c-0.001,0.641-0.007,1.282-0.018,1.923c-0.002,0.132,0.041,0.165,0.167,0.164c0.757-0.005,1.513-0.002,2.271-0.002
					C37.872,22.197,38.638,22.195,39.403,22.199z"/>
			</g>
			<g>
				<path fill="#FFFFFF" d="M36.812,13.487c-0.5-0.502-1.014-1.018-1.504-1.51c-1.126,1.123-2.261,2.256-3.403,3.394
					c0.498,0.509,1.007,1.029,1.492,1.525C34.55,15.745,35.691,14.606,36.812,13.487z"/>
			</g>
			<g>
				<path fill="#FFFFFF" d="M35.301,30.204c0.506-0.503,1.022-1.018,1.53-1.524c-1.133-1.13-2.272-2.267-3.416-3.408
					c-0.496,0.509-1.006,1.031-1.505,1.543C33.03,27.933,34.171,29.074,35.301,30.204z"/>
			</g>
			<g>
				<path fill="#FFFFFF" d="M34.126,8.863c0.043-0.1,0.008-0.131-0.076-0.166c-0.566-0.238-1.129-0.481-1.695-0.717
					c-0.263-0.11-0.209-0.143-0.325,0.128c-0.813,1.901-1.622,3.804-2.433,5.705c-0.054,0.125-0.104,0.252-0.162,0.39
					c0.684,0.293,1.352,0.579,2.031,0.87c0.022-0.042,0.035-0.065,0.045-0.089C32.383,12.944,33.252,10.903,34.126,8.863z"/>
			</g>
			<g>
				<path fill="#FFFFFF" d="M33.908,33.543c-0.025-0.067-0.043-0.12-0.064-0.173c-0.122-0.305-0.245-0.61-0.368-0.916
					c-0.689-1.716-1.38-3.432-2.065-5.15c-0.048-0.121-0.094-0.139-0.212-0.091c-0.588,0.242-1.179,0.478-1.77,0.71
					c-0.106,0.042-0.143,0.077-0.093,0.2c0.828,2.044,1.65,4.09,2.47,6.137c0.039,0.096,0.08,0.104,0.168,0.068
					c0.51-0.21,1.021-0.415,1.532-0.622C33.636,33.654,33.767,33.601,33.908,33.543z"/>
			</g>
			<g>
				<path fill="#FFFFFF" d="M28.824,28.248c0.001-0.131-0.032-0.178-0.171-0.177c-0.627,0.007-1.255,0.003-1.883,0.003
					c-0.175,0-0.175,0-0.175,0.176c0,1.504,0,3.008,0,4.513c0,0.048,0,0.096,0,0.157c0.064,0.004,0.116,0.011,0.168,0.011
					c0.628,0,1.256-0.004,1.883,0.003c0.134,0.001,0.173-0.037,0.173-0.172C28.816,31.257,28.819,29.752,28.824,28.248z"/>
			</g>
			<g>
				<path fill="#FFFFFF" d="M28.818,13.94c-0.003-1.522-0.003-3.045,0-4.568c0-0.113-0.04-0.142-0.148-0.141
					c-0.637,0.005-1.274,0.007-1.91-0.002c-0.143-0.002-0.169,0.046-0.168,0.175c0.006,0.748,0.003,1.496,0.003,2.244h0
					c0,0.757,0.003,1.514-0.003,2.271c-0.001,0.131,0.04,0.165,0.167,0.164c0.637-0.005,1.274-0.005,1.91,0
					C28.778,14.083,28.818,14.052,28.818,13.94z"/>
			</g>
			<g>
				<path fill="#FFFFFF" d="M25.994,14.228c0.105-0.042,0.12-0.085,0.078-0.186c-0.199-0.481-0.391-0.965-0.585-1.447
					c-0.628-1.559-1.257-3.119-1.881-4.68c-0.044-0.11-0.092-0.114-0.188-0.073c-0.32,0.134-0.643,0.261-0.964,0.391
					c-0.313,0.126-0.626,0.254-0.96,0.389c0.86,2.136,1.713,4.254,2.568,6.377C24.722,14.736,25.357,14.478,25.994,14.228z"/>
			</g>
			<g>
				<path fill="#FFFFFF" d="M25.98,27.962c-0.687-0.291-1.36-0.575-2.048-0.865c-0.901,2.111-1.795,4.208-2.695,6.319
					c0.694,0.294,1.363,0.578,2.045,0.867C24.184,32.17,25.078,30.074,25.98,27.962z"/>
			</g>
			<g>
				<path fill="#FFFFFF" d="M23.487,26.822c-0.498-0.51-1.007-1.031-1.51-1.545c-1.144,1.145-2.276,2.277-3.393,3.394
					c0.506,0.508,1.023,1.026,1.526,1.53C21.235,29.076,22.369,27.94,23.487,26.822z"/>
			</g>
			<g>
				<path fill="#FFFFFF" d="M21.957,16.867c0.509-0.507,1.028-1.022,1.524-1.516c-1.125-1.126-2.258-2.261-3.381-3.385
					c-0.501,0.502-1.016,1.017-1.52,1.522C19.706,14.616,20.839,15.75,21.957,16.867z"/>
			</g>
			<g>
				<path fill="#FFFFFF" d="M21.636,17.456c0.05-0.114,0.028-0.159-0.083-0.206c-1.835-0.779-3.668-1.562-5.501-2.343
					c-0.224-0.095-0.448-0.189-0.685-0.289c-0.292,0.687-0.578,1.36-0.867,2.043c2.111,0.899,4.201,1.79,6.312,2.69
					c0.028-0.057,0.05-0.099,0.069-0.143C21.132,18.624,21.38,18.039,21.636,17.456z"/>
			</g>
			<g>
				<path fill="#FFFFFF" d="M21.616,24.727c-0.279-0.689-0.553-1.363-0.835-2.058c-2.134,0.858-4.248,1.709-6.373,2.563
					c0.282,0.696,0.554,1.37,0.832,2.057C17.373,26.433,19.488,25.583,21.616,24.727z"/>
			</g>
			<g>
				<path fill="#FFFFFF" d="M20.701,20.142c0.001-0.135-0.04-0.174-0.175-0.173c-0.752,0.006-1.504,0.003-2.257,0.003
					c-0.752,0-1.505,0.002-2.257-0.002c-0.118-0.001-0.162,0.028-0.16,0.155c0.006,0.636,0.006,1.273,0,1.909
					c-0.001,0.127,0.034,0.167,0.164,0.167c1.504-0.004,3.009-0.004,4.514,0c0.14,0.001,0.172-0.048,0.171-0.177
					C20.694,21.397,20.694,20.769,20.701,20.142z"/>
			</g>
			<g>
				<path fill="#FFFFFF" d="M39.418,42.367c0.365-0.906,0.465-1.85,0.371-2.817c-0.113-1.166-0.56-2.184-1.389-3.018
					c-0.991-0.999-2.222-1.503-3.602-1.608c-0.891-0.067-1.789-0.03-2.683-0.045c-0.125-0.002-0.12,0.068-0.12,0.153
					c0,3.415,0.001,6.831-0.002,10.246c-0.001,0.12,0.038,0.149,0.153,0.148c0.851-0.004,1.701-0.002,2.552-0.003
					c0.047,0,0.093-0.006,0.154-0.009c0-0.913,0-1.825,0-2.735h0.114c0.38,0.92,0.755,1.826,1.134,2.742
					c0.054-0.018,0.096-0.029,0.135-0.046c0.223-0.099,0.452-0.19,0.668-0.303C38.06,44.471,38.925,43.59,39.418,42.367z
					 M36.337,38.655c0.484,0.629,0.632,1.349,0.514,2.119c-0.139,0.906-0.635,1.529-1.526,1.809
					c-0.113,0.036-0.228,0.062-0.361,0.097h-0.114c0-1.598,0-3.194,0-4.794c0.09,0.006,0.166,0.006,0.24,0.017
					C35.609,37.98,36.02,38.243,36.337,38.655z"/>
			</g>
			<g>
				<path fill="#FFFFFF" d="M34.086,21.403c0.075-1.032-0.135-2.026-0.544-2.979c-0.993-2.317-3.31-3.853-5.471-3.853
					c-1.306-0.007-2.213,0.181-3.058,0.604c-2.152,1.078-3.381,2.833-3.663,5.212c-0.205,1.732,0.248,3.318,1.314,4.702
					c1.175,1.524,2.74,2.364,4.662,2.501c1.052,0.075,2.072-0.108,3.021-0.579C32.667,25.861,33.899,23.969,34.086,21.403z
					 M31.438,19.602c0.656,1.722,0.077,3.738-1.386,4.821c-1.796,1.329-4.279,0.931-5.572-0.895
					c-0.559-0.79-0.819-1.673-0.775-2.638c0.084-1.852,1.348-3.411,3.1-3.824c0.292-0.069,0.596-0.089,0.894-0.132
					C29.366,16.962,30.825,17.993,31.438,19.602z"/>
			</g>
			<g>
				<path fill="#FFFFFF" d="M31.329,45.425c0.052,0,0.103,0,0.184,0c-0.619-1.474-1.226-2.919-1.831-4.359
					c0.013-0.018,0.017-0.027,0.024-0.032c0.01-0.009,0.022-0.016,0.033-0.022c0.893-0.518,1.337-1.321,1.438-2.321
					c0.107-1.055-0.236-1.978-0.925-2.768c-0.578-0.663-1.295-1.052-2.205-1.045c-1.385,0.011-2.769,0.003-4.154,0.003
					c-0.182,0-0.182,0-0.182,0.18c0,3.398,0,6.795,0,10.193c0,0.052,0,0.104,0,0.171c0.07,0,0.122,0,0.175,0
					c0.841,0,1.683,0,2.524,0c0.176,0,0.176,0,0.176-0.172c0.001-1.327,0.001-2.654,0.001-3.981c0-0.043,0-0.085,0-0.127
					c0.043,0.057,0.07,0.116,0.095,0.177c0.562,1.318,1.126,2.634,1.684,3.954c0.05,0.117,0.113,0.153,0.237,0.153
					C29.512,45.422,30.42,45.425,31.329,45.425z M28.096,38.217c0.038,0.22,0.054,0.453,0.03,0.674
					c-0.054,0.497-0.358,0.803-0.826,0.94c-0.206,0.061-0.424,0.082-0.654,0.124c-0.004-0.085-0.008-0.125-0.008-0.164
					c0-0.748,0.003-1.496-0.003-2.244c-0.001-0.118,0.033-0.162,0.151-0.146c0.198,0.028,0.4,0.033,0.593,0.078
					C27.771,37.57,28.027,37.818,28.096,38.217z"/>
			</g>
			<g>
				<path fill="#FFFFFF" d="M23.176,39.816c0.201-0.887,0.077-1.765-0.236-2.61c-0.516-1.391-1.658-2.355-3.323-2.329
					c-1.179,0.019-2.359,0.004-3.539,0.004c-0.182,0-0.183,0-0.183,0.183c0,3.393,0,6.785,0.001,10.177
					c0,0.057,0.007,0.113,0.012,0.176c0.918,0,1.825,0,2.755,0c0-0.081,0-0.155,0-0.229c0-1.693,0-3.386,0-5.079h0.14
					c0,0.004,0,0.009,0.002,0.014c0.311,0.795,0.621,1.591,0.936,2.385c0.014,0.035,0.082,0.072,0.121,0.068
					c0.229-0.024,0.465-0.035,0.685-0.096C21.93,42.094,22.855,41.237,23.176,39.816z M20.438,38.297
					c0.189,0.755-0.088,1.443-0.928,1.666c-0.226,0.06-0.462,0.081-0.706,0.122c0,0.007-0.002,0.015-0.002,0.024h-0.14
					c0-0.813,0-1.627,0-2.44c0-0.045,0.003-0.089-0.001-0.133c-0.008-0.095,0.025-0.144,0.128-0.13
					c0.259,0.037,0.524,0.05,0.776,0.113C19.987,37.623,20.327,37.854,20.438,38.297z"/>
			</g>
		</g>
	</g>
</g>
</svg>
