<?xml version="1.0" encoding="utf-8"?>
<!-- Generator: Adobe Illustrator 18.0.0, SVG Export Plug-In . SVG Version: 6.00 Build 0)  -->
<!DOCTYPE svg PUBLIC "-//W3C//DTD SVG 1.1//EN" "http://www.w3.org/Graphics/SVG/1.1/DTD/svg11.dtd">
<svg version="1.1" xmlns="http://www.w3.org/2000/svg" xmlns:xlink="http://www.w3.org/1999/xlink" x="0px" y="0px"
	 viewBox="0 0 54 54" enable-background="new 0 0 54 54" xml:space="preserve">
<g id="_x31_170px_grid">
</g>
<g id="Layer_3">
</g>
<g id="Layer_2">
</g>
<g id="SVG">
</g>
<g id="Layer_4">
	<g>
		<circle opacity="0.75" fill="#EB1722" cx="27" cy="27" r="25"/>
		<g>
			<g>
				<path fill="#FFFFFF" d="M4.418,27.223C4.413,14.795,14.506,4.622,27.075,4.676C39.469,4.729,49.523,14.775,49.525,27.23
					c0.002,12.548-10.227,22.687-22.804,22.553C14.381,49.651,4.411,39.605,4.418,27.223z M33.661,7.082c0,0.082,0,0.127,0,0.172
					c0.008,1.664,0.017,3.327,0.022,4.991c0.007,2.065,0.012,4.13,0.019,6.195c0.004,1.413,0.009,2.826,0.014,4.239
					c0.008,2.174,0.014,4.349,0.023,6.523c0.011,2.461,0.024,4.921,0.036,7.382c0.004,0.775,0.007,1.55,0.009,2.325
					c0.004,1.504,0.002,3.009,0.014,4.513c0.002,0.234-0.099,0.467-0.008,0.702c0.007,0.017-0.001,0.049-0.014,0.064
					c-0.084,0.095-0.046,0.191-0.019,0.294c0.024,0.091,0.028,0.189,0.028,0.283c-0.002,0.606-0.009,1.211-0.013,1.817
					c-0.002,0.236,0,0.471,0,0.707c0.017,0.011,0.034,0.023,0.051,0.034c2.883-1.006,5.465-2.525,7.676-4.642
					c4.224-4.044,6.495-9.005,6.666-14.845c0.169-5.779-1.771-10.826-5.691-15.082C40.038,10.111,37.088,8.243,33.661,7.082z
					 M20.234,7.126c-1.09,0.344-2.107,0.782-3.089,1.3c-3.287,1.738-5.956,4.16-7.981,7.279c-2.117,3.261-3.257,6.845-3.395,10.727
					c-0.381,10.754,7.041,18.664,14.573,20.953c0-0.08,0-0.158,0-0.235c-0.006-2.17-0.012-4.34-0.018-6.51
					c-0.004-1.386-0.01-2.771-0.014-4.157c-0.005-1.851-0.009-3.702-0.014-5.553c-0.004-1.304-0.009-2.607-0.013-3.911
					c-0.008-2.097-0.016-4.194-0.023-6.29c-0.003-0.948-0.003-1.897-0.005-2.845c-0.004-2.175-0.009-4.349-0.014-6.524
					c-0.002-1.126-0.006-2.252-0.009-3.378C20.233,7.711,20.234,7.439,20.234,7.126z M22.915,28.656
					c0.047,0.005,0.082,0.013,0.117,0.013c1.089,0,2.179-0.001,3.268,0.001c0.125,0,0.168-0.049,0.166-0.17
					c-0.005-0.41-0.005-0.82-0.005-1.23c-0.001-0.784,0.003-1.568-0.001-2.352c-0.006-1.244-0.017-2.488-0.027-3.732
					c-0.001-0.097,0.033-0.137,0.135-0.141c0.704-0.029,1.156,0.398,1.155,1.1c0,0.237-0.02,0.473-0.02,0.71
					c0,0.674,0.006,1.349,0.007,2.023c0.003,1.208,0.007,2.416,0.004,3.624c0,0.134,0.052,0.16,0.17,0.16
					c1.085-0.006,2.169-0.007,3.254-0.011c0.179,0,0.184-0.006,0.184-0.185c-0.002-0.83-0.008-1.659-0.008-2.488
					c-0.002-1.5-0.007-2.999,0.004-4.499c0.003-0.389-0.021-0.763-0.187-1.119c-0.186-0.399-0.447-0.74-0.786-1.02
					c-0.097-0.08-0.097-0.131-0.001-0.21c0.09-0.075,0.172-0.164,0.243-0.257c0.437-0.568,0.614-1.231,0.628-1.929
					c0.022-1.089,0.011-2.179,0.002-3.268c-0.003-0.304-0.028-0.611-0.079-0.91c-0.214-1.271-1.172-2.073-2.457-2.074
					c-0.72,0-1.44-0.001-2.16,0c-1.162,0.001-2.325,0.003-3.487,0.005c-0.161,0-0.177,0.018-0.175,0.166
					c0.007,0.547,0.015,1.093,0.018,1.64c0.007,1.645,0.013,3.291,0.019,4.936c0.004,1.025,0.007,2.051,0.009,3.076
					c0.002,0.912,0.004,1.823,0.005,2.735c0.002,1.75,0.003,3.501,0.005,5.251C22.915,28.551,22.915,28.6,22.915,28.656z
					 M38.28,27.966c0-2.995,0-5.99,0-8.984c0-0.269,0-0.538-0.011-0.806c-0.005-0.132,0.045-0.176,0.173-0.176
					c1.135,0.001,2.269-0.002,3.404-0.003c0.21,0,0.214,0.003,0.214,0.215c0.001,1.345,0.003,2.689,0.005,4.034
					c0.003,1.86,0.005,3.719,0.009,5.579c0.005,2.028,0.011,4.056,0.019,6.084c0.005,1.244,0.015,2.488,0.022,3.732
					c0,0.05-0.004,0.1-0.002,0.15c0.005,0.102-0.047,0.14-0.142,0.134c-0.014-0.001-0.027,0-0.041,0
					c-1.144,0.003-2.288,0.004-3.432,0.012c-0.142,0.001-0.175-0.047-0.175-0.181c-0.001-2.393-0.007-4.786-0.011-7.179
					c-0.001-0.87,0-1.741,0-2.611C38.301,27.966,38.29,27.966,38.28,27.966z M10.463,28.249c0-2.872,0-5.744-0.001-8.616
					c0-0.168-0.014-0.336-0.027-0.504c-0.008-0.1,0.034-0.144,0.131-0.144c0.027,0,0.055,0,0.082,0
					c1.901-0.003,3.802-0.008,5.703-0.006c0.133,0,0.274,0.026,0.399,0.072c1.133,0.419,1.731,1.267,1.917,2.431
					c0.034,0.215,0.042,0.436,0.043,0.654c0.006,1.623,0.009,3.245,0.011,4.868c0.001,1.222-0.87,2.442-2.028,2.831
					c-0.14,0.047-0.294,0.069-0.442,0.071c-0.647,0.01-1.294,0.009-1.942,0.012c-0.168,0.001-0.175,0.008-0.175,0.181
					c0,0.912-0.001,1.823,0,2.735c0.002,0.971,0.005,1.942,0.009,2.912c0.002,0.41,0.003,0.82,0.011,1.23
					c0.003,0.126-0.043,0.166-0.167,0.165c-1.121-0.004-2.243-0.004-3.364,0c-0.111,0-0.135-0.037-0.135-0.142
					c-0.005-1.901-0.016-3.801-0.023-5.702C10.461,30.283,10.464,29.266,10.463,28.249z M14.266,24.324h0.004
					c0,0.159-0.001,0.319,0,0.478c0.005,0.483,0.014,0.965,0.016,1.448c0,0.117,0.049,0.143,0.152,0.119
					c0.102-0.023,0.207-0.035,0.307-0.063c0.468-0.133,0.738-0.514,0.72-1.002c-0.01-0.268-0.015-0.537-0.018-0.806
					c-0.004-0.401,0.01-0.802-0.009-1.202c-0.029-0.613-0.474-1.044-1.035-1.035c-0.1,0.001-0.139,0.034-0.139,0.135
					C14.267,23.039,14.266,23.681,14.266,24.324z M27.693,15.671c0,0.337,0,0.674,0,1.011c0,0.444-0.231,0.767-0.652,0.905
					c-0.112,0.036-0.23,0.053-0.345,0.083c-0.115,0.03-0.153-0.01-0.152-0.129c0.005-0.588,0.008-1.176,0.004-1.763
					c-0.004-0.673-0.018-1.346-0.026-2.019c-0.002-0.166,0.012-0.177,0.18-0.171c0.551,0.02,0.941,0.417,0.964,1.004
					c0.014,0.359,0.003,0.719,0.003,1.079C27.676,15.671,27.684,15.671,27.693,15.671z"/>
			</g>
		</g>
	</g>
</g>
</svg>
