<?xml version="1.0" encoding="utf-8"?>
<!-- Generator: Adobe Illustrator 18.0.0, SVG Export Plug-In . SVG Version: 6.00 Build 0)  -->
<!DOCTYPE svg PUBLIC "-//W3C//DTD SVG 1.1//EN" "http://www.w3.org/Graphics/SVG/1.1/DTD/svg11.dtd">
<svg version="1.1" xmlns="http://www.w3.org/2000/svg" xmlns:xlink="http://www.w3.org/1999/xlink" x="0px" y="0px"
	 viewBox="0 0 54 54" enable-background="new 0 0 54 54" xml:space="preserve">
<g id="_x31_170px_grid">
</g>
<g id="Layer_3">
</g>
<g id="Layer_2">
</g>
<g id="SVG">
</g>
<g id="Layer_4">
	<g>
		<circle opacity="0.75" fill="#FF3622" cx="27" cy="27" r="25"/>
		<g>
			<g>
				<path fill="#FFFFFF" d="M42.648,27.358c0-1.627,0-3.143,0-4.649c-5.201,0-10.326,0-15.44,0c0,1.596,0,3.108,0,4.725
					c1.741,0,3.38,0,5.127,0c0,4.996,0,9.887,0,14.787c1.742,0,3.373,0,5.075,0c0-4.957,0-9.826,0-14.864
					C39.245,27.358,40.943,27.358,42.648,27.358z"/>
			</g>
			<g>
				<path fill="#FFFFFF" d="M31.437,13.898c-0.028-0.063-0.056-0.126-0.084-0.188c-1.143,0-2.285,0-3.483,0
					c-0.397-1.237-0.774-2.414-1.152-3.592c-0.064,0.014-0.128,0.027-0.192,0.04c-0.397,1.166-0.794,2.332-1.209,3.553
					c-1.165,0-2.28,0-3.395,0c-0.018,0.068-0.036,0.135-0.054,0.203c0.905,0.741,1.81,1.483,2.742,2.246
					c-0.376,1.242-0.733,2.423-1.16,3.838c1.194-0.871,2.163-1.577,3.155-2.3c1.031,0.748,1.991,1.445,3.139,2.279
					c-0.407-1.456-0.746-2.667-1.09-3.895C29.622,15.323,30.529,14.61,31.437,13.898z"/>
			</g>
			<g>
				<path fill="#FFFFFF" d="M25.315,31.501c0.572-1.45,0.585-2.955,0.299-4.45c-0.57-2.981-2.413-4.451-5.472-4.449
					c-2.215,0.002-4.431,0.012-6.646,0.017c-0.585,0.002-1.17,0-1.813,0c0,6.635,0,13.17,0,19.751c1.683,0,3.289,0,4.995,0
					c0-2.441,0-4.822,0-7.369c1.272,0,2.387,0.001,3.504,0C22.579,34.999,24.434,33.737,25.315,31.501z M19.335,26.727
					c0.944,0.218,1.489,1.213,1.42,2.286c-0.068,1.054-0.687,1.813-1.719,1.937c-0.72,0.086-1.459,0.017-2.275,0.017
					c0-1.519,0-2.915,0-4.49C17.673,26.557,18.528,26.54,19.335,26.727z"/>
			</g>
		</g>
	</g>
</g>
</svg>
