<?xml version="1.0" encoding="utf-8"?>
<!-- Generator: Adobe Illustrator 18.0.0, SVG Export Plug-In . SVG Version: 6.00 Build 0)  -->
<!DOCTYPE svg PUBLIC "-//W3C//DTD SVG 1.1//EN" "http://www.w3.org/Graphics/SVG/1.1/DTD/svg11.dtd">
<svg version="1.1" xmlns="http://www.w3.org/2000/svg" xmlns:xlink="http://www.w3.org/1999/xlink" x="0px" y="0px"
	 viewBox="0 0 54 54" enable-background="new 0 0 54 54" xml:space="preserve">
<g id="_x31_170px_grid">
</g>
<g id="Layer_3">
</g>
<g id="Layer_2">
</g>
<g id="SVG">
</g>
<g id="Layer_4">
	<g>
		<circle opacity="0.75" fill="#7DCE51" cx="27" cy="27" r="25"/>
		<g>
			<g>
				<g>
					<path fill="#FFFFFF" d="M29.743,43.727c-1.851,0-3.676,0-5.521,0c-0.041-0.069-0.091-0.142-0.13-0.22
						c-1.057-2.151-2.113-4.303-3.17-6.455c-1.156-2.352-2.313-4.704-3.469-7.056c-1.537-3.126-3.076-6.252-4.612-9.378
						c-0.093-0.189-0.205-0.37-0.269-0.593c0.075-0.025,0.134-0.051,0.196-0.066c1.958-0.47,3.918-0.935,5.895-1.401
						c0.061,0.126,0.117,0.234,0.165,0.344c1.279,2.937,2.557,5.874,3.835,8.812c1.399,3.215,2.797,6.43,4.196,9.644
						c0.044,0.101,0.095,0.2,0.155,0.325c0.173-0.211,0.226-0.455,0.327-0.672c0.099-0.212,0.186-0.431,0.283-0.656
						c2.302-0.8,4.602-1.599,6.976-2.418C32.958,37.245,31.357,40.474,29.743,43.727z"/>
				</g>
				<g>
					<path fill="#FFFFFF" d="M42.844,28.189c-0.098,0.016-0.2,0.022-0.295,0.048c-2.639,0.72-5.308,1.302-8,1.781
						c-1.687,0.301-3.377,0.588-5.066,0.873c-1.436,0.242-2.873,0.475-4.311,0.708c-0.153,0.025-0.309,0.026-0.478,0.04
						c-0.547-1.233-1.087-2.45-1.621-3.654c0.045-0.114,0.134-0.105,0.206-0.111c0.636-0.054,1.272-0.116,1.91-0.151
						c1.4-0.078,2.8-0.07,4.201-0.012c1.131,0.046,2.262,0.112,3.393,0.128c1.569,0.022,3.139,0.024,4.707-0.003
						c0.951-0.017,1.903-0.095,2.852-0.165c0.782-0.058,1.564-0.13,2.342-0.224c0.656-0.079,1.308-0.192,1.959-0.3
						c0.641-0.106,1.279-0.226,1.92-0.337c0.06-0.01,0.124-0.001,0.184-0.001c0.011,0.123-0.077,0.153-0.134,0.197
						c-0.482,0.367-0.959,0.738-1.451,1.091c-2.451,1.755-5.081,3.194-7.84,4.404c-1.838,0.806-3.717,1.505-5.618,2.144
						c-1.528,0.514-3.067,0.997-4.602,1.493c-0.105,0.034-0.208,0.084-0.318,0.07c-0.149-0.215-1.617-3.322-1.925-4.073
						c-0.016-0.039-0.019-0.083-0.033-0.147c0.156-0.031,0.296-0.064,0.438-0.087c1.803-0.29,3.606-0.577,5.409-0.867
						c2.057-0.331,4.106-0.706,6.14-1.16c1.925-0.43,3.831-0.927,5.707-1.539c0.111-0.036,0.244-0.034,0.318-0.151
						c0.136,0.009,0.136,0.009,0.162-0.106c0.053,0.029,0.104,0.068,0.183,0.002c-0.077,0-0.13,0-0.182,0
						C42.95,28.115,42.897,28.152,42.844,28.189z M43.376,28.014l-0.002,0.019l0.026-0.008L43.376,28.014z"/>
				</g>
				<g>
					<path fill="#FFFFFF" d="M30.393,15.542c-0.193,0.477-0.397,0.935-0.488,1.436c-0.054,0.295-0.042,0.584,0.045,0.864
						c0.114,0.363,0.239,0.723,0.382,1.075c0.097,0.237,0.219,0.467,0.354,0.684c0.26,0.417,0.414,0.863,0.468,1.352
						c0.165,1.502,0.011,2.976-0.384,4.427c-0.144,0.529-0.327,1.047-0.494,1.57c-0.024,0.074-0.06,0.144-0.088,0.211
						c-0.265,0.04-5.991,0.046-6.323,0.007c-0.015-0.015-0.037-0.029-0.043-0.047c-0.268-0.843-0.561-1.678-0.774-2.538
						c-0.209-0.844-0.305-1.697-0.254-2.566c0.067-1.169,0.413-2.241,1.109-3.193c0.105-0.144,0.203-0.297,0.281-0.456
						c0.104-0.212,0.165-0.441,0.175-0.679c0.038-0.87,0.226-1.71,0.527-2.523c0.24-0.651,0.489-1.3,0.756-1.94
						c0.124-0.298,0.284-0.586,0.457-0.859c0.519-0.817,1.231-1.382,2.181-1.627c0.405-0.105,0.817-0.137,1.233-0.12
						c0.171,0.007,0.327-0.014,0.487-0.089c0.339-0.158,0.707-0.214,1.078-0.229c0.84-0.034,1.681-0.047,2.521,0.005
						c1.282,0.079,2.535,0.302,3.729,0.799c0.869,0.362,1.653,0.851,2.297,1.547c0.836,0.903,1.288,1.982,1.45,3.191
						c0.022,0.165,0.014,0.336,0.007,0.504c-0.002,0.064-0.029,0.13-0.059,0.188c-0.034,0.065-0.101,0.097-0.171,0.068
						c-0.103-0.043-0.208-0.088-0.297-0.154c-0.349-0.258-0.745-0.4-1.158-0.517c-1.223-0.345-2.464-0.571-3.731-0.673
						c-1.222-0.098-2.441-0.075-3.66,0.03c-0.11,0.009-0.227,0.028-0.324,0.075c-0.312,0.153-0.64,0.193-0.981,0.178
						C30.614,15.539,30.524,15.542,30.393,15.542z M29.69,10.735c-0.093,0.025-0.181,0.042-0.264,0.072
						c-0.382,0.135-0.687,0.376-0.924,0.7c-0.186,0.253-0.363,0.512-0.536,0.774c-1.037,1.575-1.823,3.264-2.304,5.09
						c-0.164,0.625-0.23,1.256-0.103,1.897c0.137,0.694,0.48,1.257,1.097,1.618c0.793,0.463,1.621,0.466,2.453,0.111
						c0.344-0.147,0.586-0.413,0.733-0.755c0.175-0.409,0.243-0.837,0.195-1.282c-0.039-0.359-0.135-0.703-0.264-1.039
						c-0.176-0.458-0.174-0.921-0.012-1.381c0.081-0.233,0.18-0.459,0.267-0.689c0.055-0.145,0.102-0.294,0.152-0.438
						c-0.038-0.049-0.062-0.088-0.094-0.118c-0.315-0.304-0.417-0.684-0.38-1.105c0.019-0.222,0.053-0.447,0.115-0.66
						c0.208-0.715,0.216-1.437,0.095-2.164C29.881,11.156,29.855,10.941,29.69,10.735z M30.309,12.792
						c-0.188,0.362-0.271,0.709-0.314,1.067c-0.028,0.234-0.041,0.469,0.006,0.703c0.114,0.571,0.591,0.872,1.151,0.722
						c0.097-0.026,0.194-0.06,0.282-0.106c0.143-0.076,0.293-0.103,0.453-0.105c0.247-0.003,0.493-0.007,0.739-0.021
						c1.244-0.074,2.486-0.047,3.726,0.078c1.005,0.101,1.998,0.269,2.972,0.537c0.345,0.095,0.687,0.204,1.032,0.302
						c0.056,0.016,0.119,0.011,0.184,0.017c-0.006-0.046-0.002-0.072-0.013-0.087c-0.336-0.464-0.699-0.902-1.149-1.265
						c-0.724-0.583-1.534-1.005-2.411-1.304c-1.167-0.397-2.372-0.575-3.599-0.6c-0.851-0.018-1.703-0.003-2.555,0.005
						C30.647,12.736,30.482,12.771,30.309,12.792z"/>
				</g>
				<g>
					<path fill="#FFFFFF" d="M31.468,27.46c0.037-0.11,0.06-0.193,0.093-0.272c1.111-2.665,3.621-8.38,3.808-8.66
						c1.976,0.459,3.954,0.942,5.937,1.41c0.029,0.007,0.053,0.036,0.078,0.053c-0.094,0.301-3.427,7.175-3.619,7.464
						C37.514,27.492,31.889,27.501,31.468,27.46z"/>
				</g>
				<g>
					<path fill="#FFFFFF" d="M20.587,37.132c-0.195,0.023-0.338,0.048-0.483,0.057c-0.917,0.058-1.835,0.086-2.754,0.048
						c-0.761-0.032-1.521-0.075-2.279-0.163c-1.833-0.212-3.619-0.62-5.34-1.288c-0.343-0.133-0.672-0.308-0.999-0.478
						c-0.347-0.181-0.686-0.38-1.028-0.572c-0.137-0.076-0.263-0.165-0.36-0.318c0.079-0.066,0.169-0.07,0.25-0.081
						c0.388-0.054,0.777-0.103,1.166-0.154c0.788-0.104,1.576-0.209,2.365-0.313c0.755-0.1,1.51-0.198,2.265-0.298
						c0.766-0.101,1.532-0.203,2.298-0.305c0.888-0.118,1.776-0.236,2.665-0.354c0.044-0.006,0.089-0.001,0.152-0.001
						c0.198,0.332,0.35,0.693,0.526,1.04c0.177,0.349,0.345,0.704,0.517,1.056c0.167,0.342,0.336,0.684,0.503,1.026
						C20.222,36.385,20.393,36.736,20.587,37.132z"/>
				</g>
				<g>
					<path fill="#FFFFFF" d="M7.251,33.945c0.015-0.048,0.017-0.109,0.048-0.143c0.135-0.149,0.271-0.298,0.42-0.432
						c1.158-1.042,2.485-1.831,3.854-2.554c1.26-0.665,2.567-1.22,3.923-1.658c0.234-0.076,0.474-0.132,0.712-0.194
						c0.108-0.028,0.217-0.056,0.357-0.002c0.589,1.178,1.179,2.38,1.761,3.563c-0.027,0.042-0.032,0.053-0.039,0.06
						c-0.008,0.007-0.018,0.015-0.029,0.017c-3.587,0.456-7.173,0.912-10.76,1.367c-0.055,0.007-0.112,0.009-0.168,0.008
						C7.311,33.976,7.291,33.961,7.251,33.945z"/>
				</g>
				<g>
					<path fill="#FFFFFF" d="M28.247,12.798c0.004-0.37,0.289-0.649,0.668-0.646c0.366,0.003,0.653,0.234,0.653,0.656
						c0,0.449-0.339,0.682-0.679,0.668C28.523,13.462,28.242,13.168,28.247,12.798z"/>
				</g>
			</g>
		</g>
	</g>
</g>
</svg>
