<?xml version="1.0" encoding="utf-8"?>
<!-- Generator: Adobe Illustrator 17.0.0, SVG Export Plug-In . SVG Version: 6.00 Build 0)  -->
<!DOCTYPE svg PUBLIC "-//W3C//DTD SVG 1.1//EN" "http://www.w3.org/Graphics/SVG/1.1/DTD/svg11.dtd">
<svg version="1.1" xmlns="http://www.w3.org/2000/svg" xmlns:xlink="http://www.w3.org/1999/xlink" x="0px" y="0px"
	 width="12.772px" height="19.156px" viewBox="0 0 12.772 19.156" enable-background="new 0 0 12.772 19.156" xml:space="preserve">
<g id="Layer_3">
</g>
<g id="Layer_2">
	<g>
		<defs>
			<rect id="SVGID_33_" x="139.712" y="-128.034" width="1802.309" height="523.741"/>
		</defs>
		<clipPath id="SVGID_2_">
			<use xlink:href="#SVGID_33_"  overflow="visible"/>
		</clipPath>
		<g clip-path="url(#SVGID_2_)">

				<linearGradient id="SVGID_4_" gradientUnits="userSpaceOnUse" x1="8872.0176" y1="-5440.1113" x2="8872.0176" y2="-6506.1504" gradientTransform="matrix(0 1 -1 0 -5469.5972 -8707.1133)">
				<stop  offset="0" style="stop-color:#1D1D1B;stop-opacity:0.5"/>
				<stop  offset="0.3878" style="stop-color:#1F1D1C;stop-opacity:0.6939"/>
				<stop  offset="0.5275" style="stop-color:#261F1D;stop-opacity:0.7638"/>
				<stop  offset="0.6272" style="stop-color:#312121;stop-opacity:0.8136"/>
				<stop  offset="0.7077" style="stop-color:#422425;stop-opacity:0.8538"/>
				<stop  offset="0.7767" style="stop-color:#58282B;stop-opacity:0.8883"/>
				<stop  offset="0.8378" style="stop-color:#742D33;stop-opacity:0.9189"/>
				<stop  offset="0.8931" style="stop-color:#94333C;stop-opacity:0.9465"/>
				<stop  offset="0.9439" style="stop-color:#BA3A47;stop-opacity:0.9719"/>
				<stop  offset="0.9891" style="stop-color:#E34252;stop-opacity:0.9946"/>
				<stop  offset="1" style="stop-color:#EE4455"/>
			</linearGradient>
			<rect x="-29.486" y="-161.788" fill="url(#SVGID_4_)" width="1066.039" height="653.384"/>
		</g>
	</g>
	<g>
		<path fill="#AAAAAA" d="M6.809,13.512H5.177v-1.245c0-0.387,0.05-0.737,0.152-1.048c0.101-0.311,0.241-0.591,0.42-0.84
			c0.179-0.249,0.381-0.474,0.606-0.674C6.58,9.505,6.809,9.308,7.043,9.114l0.653-0.519c0.388-0.276,0.711-0.594,0.968-0.954
			s0.385-0.809,0.385-1.349c0-0.387-0.078-0.733-0.233-1.037C8.659,4.951,8.45,4.695,8.185,4.487C7.921,4.28,7.614,4.121,7.264,4.01
			C6.914,3.9,6.537,3.844,6.133,3.844c-0.839,0-1.52,0.228-2.04,0.685C3.572,4.986,3.249,5.566,3.125,6.272L1.539,6.023
			c0.233-1.079,0.766-1.926,1.597-2.542C3.968,2.866,4.99,2.558,6.203,2.558c0.622,0,1.209,0.08,1.761,0.239
			c0.552,0.159,1.03,0.394,1.434,0.705c0.404,0.311,0.727,0.695,0.968,1.152c0.241,0.456,0.361,0.975,0.361,1.556
			c0,0.443-0.055,0.83-0.163,1.162c-0.109,0.332-0.261,0.629-0.455,0.892C9.915,8.526,9.685,8.765,9.421,8.979
			C9.157,9.193,8.877,9.411,8.582,9.632c-0.326,0.235-0.603,0.45-0.828,0.643c-0.226,0.194-0.408,0.398-0.548,0.612
			c-0.14,0.215-0.241,0.453-0.303,0.715c-0.062,0.263-0.093,0.581-0.093,0.955V13.512z M7.416,16.5c0,0.29-0.117,0.549-0.35,0.778
			C6.833,17.506,6.53,17.62,6.157,17.62s-0.676-0.114-0.91-0.342c-0.233-0.228-0.35-0.487-0.35-0.778c0-0.29,0.117-0.55,0.35-0.778
			c0.233-0.228,0.537-0.342,0.91-0.342s0.676,0.114,0.909,0.342C7.299,15.95,7.416,16.21,7.416,16.5z"/>
	</g>
</g>
<g id="Capa_4">
</g>
</svg>
